<svg fill="none" height="300" viewBox="0 0 400 300" width="400" xmlns="http://www.w3.org/2000/svg" xmlns:xlink="http://www.w3.org/1999/xlink"><linearGradient id="a" gradientUnits="userSpaceOnUse" x1="-11.219" x2="241.881" y1="53.6656" y2="382.929"><stop offset="0" stop-color="#4e5cff"/><stop offset=".234012" stop-color="#cd60c1"/><stop offset=".744827" stop-color="#4722ed"/></linearGradient><linearGradient id="b" gradientUnits="userSpaceOnUse" x1="191.767" x2="383.35" y1="47.9865" y2="261.506"><stop offset="0" stop-color="#e23c4d"/><stop offset=".461897" stop-color="#cd60c1"/><stop offset="1" stop-color="#4722ed"/></linearGradient><g clip-rule="evenodd" fill-rule="evenodd"><path d="m212.174.419985c-.358.231015-.455.419985-.217.419985s.726-.18897 1.084-.419985c.357-.231015.455-.419985.216-.419985-.238 0-.726.18897-1.083.419985zm4.767 2.167115c-.39.25226-.444.42259-.133.42693.283.00346.636-.18854.784-.42693.332-.53831.182-.53831-.651 0zm.121 1.38999c-4.262 2.16972-4.467 2.70803-.287.75373 1.624-.75936 3.242-1.42337 3.595-1.47494.675-.09926 1.24-1.10567.617-1.09743-.199.0026-1.965.8209-3.925 1.81864zm-6.188 2.90871c0 1.91963.342 3.06951.913 3.06951.213 0 .387-.40179.387-.89242 0-.49064-.146-.80184-.325-.69132-.179.11053-.31-.56084-.292-1.4914.019-.931-.127-1.69252-.325-1.69252-.197 0-.358.76412-.358 1.69815zm8.885.41305c-2.384 1.15595-5.115 2.36389-6.068 2.68419-1.878.63106-2.899 1.27256-2.024 1.27256 1.146 0 11.96-4.87994 12.403-5.59769.406-.65663.501-.69261-4.311 1.64094zm-28.275 2.10081c.659.09925 1.634.09665 2.167-.00607s-.006-.18421-1.198-.18117c-1.192.00347-1.628.08755-.969.18724zm30.659.98904c-.391.2523-.445.4226-.134.427.284.0034.636-.1886.784-.427.332-.53828.182-.53828-.65 0zm-34.44.8378c-.157.2545-.067.4625.199.4625.267 0 .361.1998.21.4438-.486.7863 1.529 5.9986 2.664 6.8915l1.073.8438-.899 1.7619c-.494.9687-.801 1.7614-.683 1.7614.482 0 1.513-2.0644 1.903-3.8106.359-1.6067.33-1.7892-.214-1.3376-.996.8261-1.831-.3684-2.747-3.9259-.873-3.3963-1.069-3.7977-1.506-3.0908zm28.263 1.8586-5.092 2.226v2.064c0 1.1356.146 2.1554.325 2.2664.179.1109.325-.7646.325-1.9461v-2.1485l4.658-2.0726c3.985-1.7727 5.779-2.7072 5.058-2.6339-.1.0104-2.473 1.0202-5.274 2.2447zm7.033-.4408c-.115 1.1208-.049 1.878.147 1.6821s.29-1.113.209-2.0384l-.147-1.6826zm-5.841 4.4573c-2.145 1.0472-3.758 1.9157-3.583 1.9296.496.0407 7.701-3.3556 7.701-3.6299 0-.3294.265-.4391-4.118 1.7003zm-38.159.6844c-.157.254-.193.5552-.079.6687.113.1136.322-.0944.463-.4624.293-.7637.043-.8981-.384-.2063zm43.501 1.2149c.345.2188.518.9505.433 1.8355-.133 1.3935-.404 1.6145-5.125 4.1734-6.241 3.3834-5.762 3.5355.65.2064l4.768-2.4749.132-2.0588c.112-1.7462.014-2.0579-.65-2.0522-.589.0052-.641.0966-.208.3706zm-6.86 2.6547-4.55 2.1649-.133 1.7359c-.081 1.0567.053 1.7359.345 1.7359.311 0 .379-.5267.195-1.5075l-.283-1.5079 4.455-2.1788c4.096-2.0028 5.186-2.6075 4.702-2.6075-.1 0-2.229.9744-4.731 2.165zm-26.871-.4313c.255.4768.654.8669.886.8669.233 0 .18-.3866-.12-.8669-.298-.4767-.696-.8668-.886-.8668-.189 0-.135.3901.12.8668zm22.89 6.7974c.313.1253.687.1097.831-.0342s-.112-.2462-.569-.2276c-.505.0208-.608.1235-.262.2618zm-75.137 8.5697c-.816.8157-1.056 1.4979-1.03 2.9256.037 2.0189.182 1.8741.594-.5964.193-1.1603.643-1.833 1.661-2.4848.993-.6363 1.17-.8959.617-.9011-.428-.0039-1.257.4715-1.842 1.0567zm5.038 1.7891c.021.505.124.6077.262.2623.125-.313.109-.687-.034-.8309-.144-.1439-.247.1118-.228.5686zm2.601 2.1672c.02.5049.123.6076.261.2622.126-.313.11-.687-.034-.8309s-.246.1118-.227.5687zm-1.335 1.481c-.39.2522-.444.4226-.134.4269.284.0035.637-.1885.784-.4269.333-.5383.183-.5383-.65 0zm58.963.4464c-1.301.4746-13.101 6.2257-26.222 12.7808s-24.002 11.917-24.181 11.9148c-.179-.0017-.325-1.3037-.325-2.8931 0-3.9463-.362-3.3014-.471.8413-.049 1.8429-.304 3.5012-.567 3.6897-1.05.7511-5.901 2.8333-6.111 2.6231-.123-.1235-.706-3.112-1.294-6.6405-1.121-6.7237-1.481-7.5437-3.724-8.4726-1.358-.5621-1.698-1.2872-.605-1.2872.686 0 4.97-2.0389 4.97-2.3652 0-.101-.536-.1335-1.191-.0728-.719.0667-1.142.3354-1.066.6774.078.3524-.127.4698-.542.3103-.368-.1408-.668-.0346-.668.2358 0 .2705-.123.3689-.273.2185-.151-.1504-.644-.0759-1.095.1655-.452.2419-1.548.5284-2.436.6372-1.882.2305-1.35-.0291-23.451 11.4419-18.3425 9.5198-18.3472 9.5232-18.9453 13.2255l-.2822 1.748-6.2218 3.0075c-3.4223 1.654-6.1351 3.0947-6.0285 3.2009.1539.1538 4.655-1.9288 10.2128-4.7256 1.6474-.8288 1.7298.1356.563 6.5798l-1.1382 6.2837-3.9498 2.0493c-2.1727 1.1273-11.4216 5.8739-20.5529 10.5479-15.3346 7.85-16.806 8.701-19.2566 11.148-4.8349 4.828-9.2445 12.777-10.322 18.606-.2674 1.446-.3827 21.849-.3103 54.936l.1153 52.634 1.0367 2.106c1.5235 3.095 3.0882 4.411 10.3606 8.712 3.6108 2.135 6.3787 3.998 6.1507 4.139-.6306.389-2.1615 5.15-2.1615 6.721 0 1.918 2.689 4.878 5.9154 6.511 2.3496 1.189 2.871 1.282 7.0873 1.253 3.4787-.025 5.521-.297 8.6685-1.157 9.3997-2.567 12.4419-3.435 14.0863-4.018 6.4875-2.301 11.7349-4.1 11.9191-4.087.1192.008-.7585.524-1.9504 1.146-3.3898 1.77-1.6327 1.636 2.1983-.168 5.0225-2.365 5.0425-2.372 4.6945-1.757-.166.296.139.082.677-.473.895-.922 1.248-.99 4.073-.786 1.701.123 4.264.645 5.694 1.161 1.966.707 3.308.896 5.497.773 2.628-.148 3.65-.536 11.052-4.196 15.685-7.755 40.238-20.523 41.246-21.448 2.22-2.038 2.822-4.824 1.566-7.252-.367-.711-.58-1.432-.474-1.604s1.968-1.181 4.136-2.244c2.168-1.062 3.941-2.054 3.941-2.206 0-.151-1.966.692-4.37 1.876-3.807 1.874-4.509 2.088-5.442 1.663-.59-.269-.949-.688-.798-.932s2.112-1.303 4.358-2.353c2.247-1.05 4.085-2.023 4.085-2.163 0-.141-.731.111-1.625.56-.894.448-2.947 1.439-4.561 2.203l-2.936 1.387-1.724-.76c-.947-.418-1.718-.87-1.712-1.002.006-.133 1.987-1.17 4.402-2.305 2.416-1.134 4.287-2.167 4.159-2.295s-2.326.76-4.884 1.972c-4.518 2.141-4.684 2.184-5.751 1.485l-1.099-.72 2.089-1.007c1.149-.553 2.202-.979 2.34-.945.137.033.714-.097 1.282-.289.8-.272.898-.436.434-.73-.485-.307-.465-.38.106-.386.388-.003.969-.325 1.292-.713.322-.389-1.215.21-3.416 1.33-2.204 1.122-4.44 1.974-4.976 1.898-.71-.101.201-.725 3.361-2.303 2.383-1.191 4.415-2.214 4.515-2.275.099-.061.049-.241-.11-.401-.34-.34-3.826 1.225-7.102 3.189l-2.304 1.382-3.084-1.778c-2.865-1.651-3.027-1.822-2.268-2.384 1.271-.941 26.378-13.273 34.841-17.112 4.172-1.893 10.535-4.987 14.141-6.877 3.605-1.889 6.676-3.435 6.826-3.435.149 0 .271 4.534.271 10.077l-.001 10.077-3.142 1.775c-1.728.976-6.274 3.615-10.103 5.863-3.828 2.249-8.07 4.668-9.425 5.377-1.356.708-2.466 1.437-2.467 1.619-.002.598 4.003-1.572 20.494-11.1 2.332-1.348 4.308-2.451 4.39-2.451s.393.591.692 1.312c.751 1.812 4.326 4.92 7.253 6.305 3.735 1.767 9.861 2.863 15.108 2.703 2.435-.073 4.325.028 4.202.227-.291.469 5.243.036 7.329-.573 1.668-.486 6.57-4.599 6.199-5.199-.116-.188.066-.572.405-.853.339-.282.615-.84.613-1.242-.002-.401.202-1.509.452-2.463.251-.953.46-2.945.466-4.426.01-2.53.122-2.825 1.852-4.878 5.934-7.039 6.893-8.269 6.758-8.667-.081-.242-.832.405-1.669 1.437s-2.836 3.297-4.443 5.032l-2.921 3.156v-14.582-14.582l-1.78-1.931c-1.883-2.044-4.944-3.725-8.332-4.578-2.306-.581-2.296-.486-.472-4.633.551-1.251 1.255-2.273 1.567-2.271.744.005 9.023 4.03 14.218 6.912 5.687 3.156 9.54 5.759 11.66 7.88.989.988 1.886 1.709 1.993 1.601.396-.396-4.001-4.246-7.45-6.522-1.952-1.289-7.36-4.259-12.018-6.601l-8.468-4.257.748-1.305c.412-.717 1.695-2.349 2.851-3.626 1.962-2.166 2.237-2.322 4.118-2.331 3.024-.014 5.229-1.262 9.748-5.515 2.252-2.12 5.961-5.178 8.242-6.795 2.282-1.618 4.364-3.201 4.628-3.518.38-.459-.22-.906-2.911-2.168-9.187-4.311-12.138-5.155-17.137-4.902-2.788.141-3.803.427-6.688 1.893-3.022 1.535-3.537 1.979-4.609 3.98-.664 1.238-1.614 3.871-2.113 5.851-.498 1.979-1.298 4.153-1.776 4.83-.479.678-.95 2.141-1.046 3.251-.228 2.628-4.097 17.406-4.557 17.406-.428 0-.413-5.514.051-19.071.327-9.529.424-10.389 1.518-13.351 2.023-5.48 3.613-8.669 4.655-9.337 1.428-.915 10.031-2.743 16.263-3.455 5.587-.638 8.993-1.879 10.99-4.005l.925-.984-.88-.471c-1.514-.811-7.494-1.428-11.338-1.171l-3.684.247 3.901-1.024c7.251-1.902 8.735-2.614 14.953-7.174 2.503-1.835 5.933-4.14 7.621-5.121 3.934-2.286 4.529-2.956 3.151-3.543-.561-.239-4.53-.829-8.821-1.311-4.291-.4824-10.532-1.198-13.87-1.5902-6.587-.7746-9.024-.5592-13.01 1.1494-1.383.5929-1.943.6783-1.943.2973 0-1.3522 1.701-6.4523 2.747-8.2376 1.578-2.6924 6.174-6.7619 12.068-10.6852 2.698-1.7961 4.906-3.4605 4.906-3.6988 0-.9419-3.73-.6203-9.319.8035-3.218.8196-6.241 1.6475-6.717 1.8395-.861.3476-.861.3428-.021-.9302 3.901-5.9119 8.133-14.2631 8.843-17.4531.594-2.666-.212-2.7552-3.741-.4152-1.603 1.0628-4.332 2.6885-6.064 3.6126-1.732.9245-3.72 2.2716-4.416 2.9941-1.148 1.191-4.016 5.8521-8.866 14.41-.975 1.7203-1.87 3.1311-1.989 3.1358-.119.0044-.51-.1768-.867-.4026-.541-.3415-.694-2.3968-.914-12.2377-.176-7.8866-.448-12.3322-.817-13.3438-.815-2.2369-2.783-4.1115-7.154-6.8143-2.146-1.3267-6.376-4.0647-9.402-6.0844-6.302-4.2077-7.642-4.5683-11.602-3.125zm-64.113.6969c-.806.3515-1.742.5331-2.081.4031-.386-.1478-.501-.0516-.31.2579.168.2718-.054.7572-.494 1.0788-1.214.8876-.657.7216 3.087-.9215 2.124-.9318 3.018-1.4961 2.347-1.4814-.595.013-1.743.3116-2.549.6631zm70.366.8873c1.521.7255 2.027 1.4515.989 1.4207-.596-.0178-28.11 13.5501-27.901 13.7591.071.0715 6.062-2.7696 13.311-6.3133 15.84-7.7431 15.714-7.695 17.39-6.634l1.258.7967-4.25 2.0613c-2.337 1.1338-6.934 3.3417-10.214 4.9059-3.281 1.5647-5.895 2.9144-5.81 2.9993.172.1721 3.09-.9249 4.339-1.6314.441-.2488.892-.3619 1.002-.2514.111.1106 1.471-.4611 3.024-1.2703 1.552-.8092 3.093-1.4711 3.424-1.4711.33 0 1.028-.4386 1.549-.9752.521-.5365.81-.7316.642-.4343-.168.2974.791-.0611 2.132-.797 3.74-2.0527 4.866-2.2681 6.346-1.2145.685.4881 3.048 1.8438 5.25 3.0128 3.502 1.8589 3.829 2.1263 2.613 2.1337-.885.0052-4.671 1.644-10.403 4.502-4.956 2.4718-22.566 11.217-39.134 19.4343-41.282 20.4749-101.9369 51.3554-105.1282 53.5234-3.2069 2.178-7.0227 6.229-8.7755 9.316-2.8207 4.969-2.682 2.2-2.7401 54.716-.0438 39.44-.3641 66.381-.7372 61.968-.0421-.499-.4725-1.266-.9562-1.704-1.3549-1.226-4.7005-6.496-6.295-9.915-3.4618-7.422-4.2237-20.621-4.7083-81.526-.078-9.83-.2713-13.562-.8868-17.12-.667-3.857-.7078-4.948-.2674-7.152 1.1863-5.94 6.4277-14.183 11.406-17.937 2.7171-2.049 10.3974-6.157 27.4197-14.667 6.9131-3.456 13.1544-6.822 13.8695-7.481 1.0801-.9939 26.4875-14.5531 43.9915-23.476 2.502-1.2756 4.705-2.5611 4.895-2.8567s1.777-1.1989 3.527-2.0072c1.749-.8088 3.35-1.7684 3.556-2.1324.362-.6385 42.294-21.8606 49.071-24.8348 3.765-1.6526 5.029-1.784 7.202-.7476zm-90.896 1.6808c-1.609.8261-2.926 1.5989-2.926 1.7176 0 .1938 6.025-2.6915 6.465-3.0959.593-.5448-1.006.0784-3.539 1.3783zm15.711.1894c-.39.2522-.444.4226-.134.4269.284.0035.637-.1885.784-.4269.333-.5383.183-.5383-.65 0zm6.827 1.6279-4.226 1.9855v2.3106c0 1.2712.18 2.311.401 2.311.22 0 .346-.7658.28-1.7016-.067-.9362-.004-1.8741.141-2.0843.143-.2102 1.724-1.1295 3.512-2.0423 6.424-3.281 6.35-3.8124-.108-.7789zm-11.161.3225c-1.073.5743-1.755 1.0445-1.517 1.0445s1.311-.4702 2.384-1.0445 1.755-1.0446 1.517-1.0446c-.239 0-1.311.4703-2.384 1.0446zm14.771 1.3362c.02.505.123.6077.261.2623.126-.313.11-.687-.034-.8309s-.246.1118-.227.5686zm-23.873 2.998c-2.026 1.0489-3.489 1.9071-3.251 1.9071.239 0 2.092-.8582 4.118-1.9071s3.489-1.907 3.251-1.907c-.239 0-2.092.8581-4.118 1.907zm-20.3708.6502c-2.2646 1.1676-3.9225 2.1229-3.6841 2.1229s2.2863-.9553 4.551-2.1229c2.2649-1.1677 3.9229-2.1229 3.6839-2.1229-.238 0-2.286.9552-4.5508 2.1229zm114.4738-1.3753c-.027.5548-.645 1.6032-1.371 2.3297-1.272 1.2721-1.345 1.2911-1.974.5084-.622-.7728-.632-.7672-.207.1144.389.8062.278.9969-.852 1.465-.714.296-1.419.7324-1.566.9704-.147.2375.978-.2267 2.5-1.0316 2.81-1.4862 4.114-3.1063 3.717-4.6185-.139-.5288-.211-.4525-.247.2622zm-62.796 1.8087c0 .8343.089 1.1754.198.7585.11-.417.11-1.1001 0-1.517-.109-.417-.198-.0759-.198.7585zm-52.3279 3.0517c-4.2909 2.1151-9.5176 4.5683-11.6149 5.4516-4.6056 1.94-5.9618 3.3079-5.8885 5.9414.0277.9947.1378 1.4186.2448.9418.6688-2.9772 1.185-3.8171 3.0869-5.0234 1.094-.6939 2.2655-1.2612 2.604-1.2612s4.9935-2.1455 10.345-4.7677c5.3506-2.6222 9.8146-4.7676 9.9186-4.7676s.189 1.0406.189 2.3127v2.3128l-9.6434 4.8998c-5.3043 2.6946-9.7456 5.0555-9.87 5.2462-.348.5326-4.8773 2.5563-5.7333 2.5611-.4169.0026-.7585.1994-.7585.4377 0 .8205 1.5227.4196 4.1176-1.0835 1.4303-.8287 7.0379-3.7531 12.4609-6.4984l9.8607-4.9908v-2.8155c0-2.4064-.11-2.8104-.759-2.7791-.417.0199-4.269 1.767-8.5599 3.8821zm15.3869-1.318c-.835.4568-1.361.8387-1.171.8486.459.0243 2.904-1.2469 2.904-1.51 0-.2835-.025-.2739-1.733.6614zm113.33 1.9005c1.59 1.5907 1.857 3.5294 2.109 15.3307l.233 10.9461-1.491-1.1373-1.491-1.1373v-7.5477c0-7.8328-.321-9.6194-2.075-11.5572-1.075-1.1885-3.096-2.1346-3.9-1.826-.553.2119-.426.4295.62 1.0658 1.795 1.0918 3.094 2.8398 3.653 4.9159.326 1.2096.359 6.1676.11 16.3049-.197 8.0119-.343 14.9085-.324 15.3255.044.9687.05.97-1.994-.3827l-1.725-1.1413v-12.8583c0-13.486-.057-13.8986-1.928-13.8986-.489 0-7.325 3.1397-15.192 6.9764-7.867 3.8371-20.837 10.0901-28.823 13.896-22.549 10.7452-93.4801 46.7812-99.2442 50.4192-.9613.607-2.3335 1.913-3.05 2.901-2.5411 3.509-2.6035 4.159-2.4995 26.115l.094 19.967.2311-20.37.2305-20.371 1.214-2.473c1.8967-3.862 1.3203-3.495 23.4912-14.974 26.9239-13.941 119.4699-60.0764 123.0299-61.3333.951-.3355 1.328-.2974 1.619.1634.21.3302.383 6.2127.387 13.0724l.007 12.4718-1.205-.6232c-1.577-.8153-8.669-2.8663-9.912-2.8663-1.284 0-1.358.16-2.572 5.5439-.576 2.5533-1.562 6.1043-2.193 7.8923-.867 2.461-1.148 4.093-1.154 6.718-.009 3.993.176 6.302.443 5.541.112-.319.815.116 1.779 1.1.877.895 2.375 2.267 3.328 3.047 1.157.947 1.543 1.498 1.161 1.655-.315.13-1.612.76-2.883 1.401l-2.311 1.165-.254-1.536c-.14-.846-.272-2.61-.293-3.921-.022-1.311-.151-2.091-.287-1.734-.363.955-1.03 1.286-2.609 1.294-.775.003-1.409.178-1.409.386 0 .21.878.282 1.95.161l1.951-.22v2.469c0 3.068-.439 3.909-2.623 5.023l-1.727.881.042-9.803c.023-5.391-.071-9.915-.209-10.053s-.251.74-.251 1.953c0 2.198-.004 2.204-1.842 2.871-1.878.682-5.047 1.564-5.634 1.568-.179.001-.326-.4-.326-.893 0-.647-.21-.836-.758-.68-.417.119-1.977.548-3.467.953-1.49.406-2.709.918-2.709 1.139s-.19.285-.421.142-1.015.047-1.741.422l-1.32.683.116 11.579.115 11.58 1.084-.109c.596-.06 7.958-3.527 16.36-7.705l15.276-7.597 1.36.703 1.359.703-1.899 1.096c-5.507 3.176-36.83 19.001-123.4941 62.39-10.6184 5.317-19.7368 10.068-20.2625 10.557-.9497.885-.9566.996-.9566 15.423 0 9.188.1651 14.839.4486 15.369.8647 1.616 1.9092 1.236 17.9719-6.54 4.5293-2.193 10.1855-4.905 12.5697-6.027 10.681-5.029 27.955-13.642 27.955-13.939 0-.18-5.315 2.267-11.81 5.437-6.497 3.171-15.127 7.329-19.1793 9.241-4.0526 1.913-11.2591 5.35-16.0147 7.639-4.7555 2.288-9.0884 4.161-9.6284 4.161-.5401 0-1.1837-.377-1.4308-.838-.5695-1.064-.612-27.086-.0459-28.144.2215-.414 2.0254-1.518 4.0091-2.454 1.9838-.937 15.3779-7.607 29.765-14.823 14.387-7.216 26.333-13.12 26.547-13.12.222 0 .392 6.193.395 14.411.007 15.586.151 16.69 2.142 16.464.966-.109 24.592-11.492 60.048-28.931 9.059-4.455 18.629-9.139 21.268-10.409 6.257-3.01 8.849-5.073 10.437-8.306 1.229-2.503 1.236-2.57 1.379-12.135l.145-9.618 1.047.478 1.048.477v8.737c0 11.25-.276 12.304-4.268 16.263-2.719 2.696-3.696 3.268-17.186 10.048-14.15 7.112-42.875 21.214-68.048 33.407-45.4832 22.031-57.1271 27.701-67.3173 32.779-6.2734 3.125-11.8858 5.683-12.4722 5.683h-1.0658l.1192-47.375.1196-47.374 1.6756-3.391c2.1182-4.285 6.1087-8.368 10.8937-11.146 5.2778-3.064 60.1322-30.936 88.2022-44.8161 13.707-6.7778 33.406-16.6031 43.775-21.8341 20.607-10.3944 21.449-10.6986 23.612-8.5359zm-89.505.2497c.351.2219.546.4768.434.5669-1.118.8981-3.74 2.4393-8.656 5.0897-3.218 1.7346-10.513 5.6887-16.21 8.7864-10.823 5.8846-13.019 6.6821-14.7791 5.364-.4767-.3567-.7693-.7286-.6501-.8261.2059-.1695 16.0332-8.46 30.3392-15.8919 6.521-3.3881 8.193-3.9303 9.522-3.089zm-48.964.667c-.5959.3407-.8885.6194-.6501.6194s.921-.2787 1.517-.6194c.5959-.3406.8885-.6193.6501-.6193s-.921.2787-1.517.6193zm115.616.6779c-1.371.7074-2.492 1.3835-2.492 1.5023 0 .1191 1.17-.3745 2.6-1.0966s2.601-1.4073 2.601-1.5231c0-.2891.08-.3224-2.709 1.1174zm-16.362.6224c-1.073.5743-1.755 1.0446-1.517 1.0446s1.311-.4703 2.384-1.0446 1.755-1.0445 1.517-1.0445-1.311.4702-2.384 1.0445zm-124.6062.212c-.1517.2453.0221.3181.4078.1703.7507-.2882.8881-.599.2648-.599-.2245 0-.527.1929-.6726.4287zm7.9069 1.9811c-2.5628 1.3012-4.6593 2.4627-4.6593 2.5819s2.1455-.8594 4.7677-2.1745c2.6222-1.315 4.7676-2.4869 4.7676-2.604 0-.2947.2839-.423-4.876 2.1966zm69.3913.2991c1.536 8.9073 1.89 11.2101 1.744 11.3284-.865.7026-29.674 15.771-41.845 21.887-7.2169 3.6265-8.0915 3.5407-7.4128-.7264.6718-4.2228 2.9564-15.859 3.1523-16.0549.1023-.1023.8565.1322 1.6756.521 2.3959 1.1369 4.0539.8595 8.2939-1.3883 9.821-5.2054 31.56-17.0222 32.407-17.616.519-.3628 1.072-.6597 1.23-.6597.159 0 .498 1.2192.755 2.7089zm-56.0891-1.6015c-.8079.6475-.8027.6553.134.2015.5365-.26.9752-.5634.9752-.6739 0-.3316-.225-.2358-1.1092.4724zm103.3971.6701c-1.788.6947-4.031 1.6383-4.984 2.0964-.954.4586-2.269.9657-2.923 1.1265-.654.1612-1.069.4867-.923.7234.154.2488-.11.2293-.625-.046-1.014-.543-1.878-.6414-1.058-.1209.364.231-.166.7247-1.621 1.5105-2.425 1.3098-2.788 1.4065-2.347.6259.225-.3992.169-.417-.211-.0672-.339.3112-.473 1.6518-.389 3.896.11 2.9317.243 3.4436.932 3.5753.443.0846 1.028-.071 1.301-.3458.373-.3767.297-.4248-.307-.1946-1.49.5677-2.159-2.3678-1.033-4.535.97-1.8671 12.698-7.2529 13.085-6.0089.514 1.6513.604 1.7111.635.4187.026-1.0697.283-1.5136 1.043-1.8027 1.585-.6024 4.047-2.1966 3.326-2.1537-.358.0217-2.113.6073-3.901 1.3021zm-12.244 1.067c-1.609.8262-2.926 1.599-2.926 1.7177 0 .1192 1.366-.4711 3.034-1.3115 1.669-.8404 3.034-1.6228 3.034-1.7394 0-.2904.122-.3419-3.142 1.3332zm80.725-.9288c0 .8097-5.665 11.8485-7.422 14.4629-1.961 2.9174-3.642 4.6138-7.098 7.1611-1.668 1.23-3.293 2.4844-3.609 2.7873-1.06 1.0147-2.014 1.3137-3 .9414-.537-.2024-.976-.5535-.976-.7797 0-.7949 1.735-4.4452 2.968-6.2469.686-1.0017 2.238-3.5845 3.45-5.7395 2.712-4.8227 4.723-6.8589 8.976-9.0901 1.812-.9505 3.917-2.2565 4.677-2.9023 1.576-1.3379 2.034-1.4714 2.034-.5942zm-196.5546.2467c-.1517.2453.0221.3181.4078.1703.7507-.2883.8881-.599.2648-.599-.2245 0-.527.1929-.6726.4287zm123.7396.2214c-.596.3407-.877.6263-.625.635.253.0082.838-.2713 1.301-.6211 1.07-.8096.728-.8166-.676-.0139zm15.361.0239c-.793.6358-.779.6445.242.1582 1.327-.632 1.573-.8322 1.022-.8322-.233 0-.801.3034-1.264.674zm-18.395 1.4931c-.391.2523-.444.4226-.134.4269.284.0035.637-.1885.784-.4269.332-.5383.183-.5383-.65 0zm12.461 1.5443c-1.609.8261-2.926 1.5989-2.926 1.7177 0 .1191 1.365-.4712 3.034-1.3116s3.034-1.6227 3.034-1.7393c0-.2904.121-.342-3.142 1.3332zm-140.4295.2171c-1.3709.7074-2.4922 1.3835-2.4922 1.5023 0 .1937 5.1578-2.2616 5.5985-2.6651.5674-.5193-.9414.0455-3.1063 1.1628zm33.482-.0888c0 1.4394.3749 2.6616.8161 2.6616.4244 0 .0282-3.4301-.4286-3.7122-.2133-.1318-.3875.3411-.3875 1.0506zm96.8135 2.0644c-.036 1.2725.08 1.7827.319 1.4056.461-.7277.511-3.4098.063-3.4063-.179.0013-.351.9015-.382 2.0007zm-119.785 4.99c-6.5555 3.3603-12.1142 6.3093-12.3526 6.5538-.2383.244 5.0278-2.3392 11.7025-5.7407 10.7134-5.4594 13.4799-6.9617 12.7643-6.9313-.1075.0048-5.5586 2.7579-12.1142 6.1182zm20.66-4.9705c-.4143.4139-.3562 1.0112.098 1.0112.2128 0 .4993-.2926.6367-.6502.2536-.6605-.2085-.8876-.7347-.361zm93.822 1.9608c-.032 1.1182.163 2.1702.434 2.3375.327.2015.144.5773-.541 1.1138-.828.648-.862.7399-.168.4599 2.225-.898 9.908-4.8543 9.434-4.8574-.295-.0017-2.189.8166-4.21 1.8187-2.021 1.0025-3.82 1.6769-3.998 1.4988-.178-.1777-.451-1.2418-.608-2.3639l-.285-2.0406zm-124.234 2.0978c-1.6687.9405-2.8775 1.7124-2.6864 1.715.4421.0065 6.3705-3.0521 6.3705-3.2871 0-.3952-.7992-.0546-3.6841 1.5721zm121.172-.5808c-.016.5223.165 1.0701.403 1.2175.513.3168.513-.1075 0-1.3003-.359-.8356-.373-.8326-.403.0828zm-111.9826 8.0032c-6.627 3.3564-11.9694 6.1819-11.8727 6.2785.0966.0967 5.7134-2.653 12.4817-6.1108 6.7683-3.4574 12.1112-6.2829 11.8728-6.2786s-5.8551 2.754-12.4818 6.1109zm21.3761-3.9182c-2.1654.8638-2.6097 1.637-2.6097 4.5423 0 1.4983.1998 2.848.4438 2.9989.6428.397 2.9244-.1856 3.6781-.9397.7845-.7845.8543-1.6071.104-1.2275-.2977.1509-.2002-.0052.2167-.3472.8309-.6813 1.0307-2.0431.2995-2.0431-.2522 0-.3385.195-.1911.4334.1473.2384.0927.4334-.1214.4334-.2145 0-.6176.5002-.8959 1.1113-.2929.6428-.322.9974-.0697.8413.2405-.1487.4368-.0585.4368.1998 0 .5934-2.1255 1.4238-2.8918 1.1295-.361-.1382-.5756-.9509-.5756-2.1779 0-1.5374.2558-2.23 1.192-3.2303 1.5668-1.6739 2.9347-2.0844 3.0231-.9076.036.4767-.1175.8668-.3411.8668-.2237 0-.4066.2189-.4066.4863 0 .3364.2012.3199.6502-.0529.3576-.2969.6501-1.0033.6501-1.5698 0-1.1291-.7411-1.2851-2.5914-.547zm177.5395 3.551c-12.729 8.1562-15.183 10.8304-17.145 18.6832-.441 1.7627-.933 3.418-1.094 3.6785-.317.513-4.746 2.643-5.496 2.643-.252 0-.833.439-1.289.975l-.83.975.11-2.383c.076-1.644.28-2.35.657-2.274.425.085.435-.0691.045-.6937-.602-.9639-.209-2.8189.828-3.9064.411-.4308.795-.9622.853-1.1806.058-.2189.475-1.4477.928-2.731.565-1.6028.715-2.7102.478-3.5359-.322-1.1252-.134-1.3597 2.942-3.6564 4.388-3.278 5.499-3.7907 11.583-5.3437 7.121-1.8177 8.742-2.0908 7.43-1.25zm-50.479 2.2885c-5.252 2.6248-5.567 2.9997-5.117 6.1074.132.9106.247 2.3106.256 3.1111.016 1.3679.089 1.4381 1.209 1.162 2.357-.5808 9.14-4.0603 9.603-4.9263.503-.9401.653-6.0393.211-7.1909-.145-.3771-.5-.6857-.789-.6857-.29 0-2.708 1.0901-5.373 2.4224zm5.836 1.1087c-.153 1.465-.279 3.0743-.281 3.5758-.001.5704-.528 1.2149-1.408 1.7228-1.322.7628-7.992 3.7396-8.38 3.7396-.097 0-.176-1.6089-.172-3.5757l.005-3.5758 4.654-2.2555c2.56-1.2405 4.926-2.2647 5.257-2.2755.482-.016.548.5184.325 2.6443zm-154.9019 3.5329c-6.2573 3.1427-11.3774 5.8325-11.3774 5.9769 0 .2856 22.0609-10.7381 22.7331-11.3596.2263-.2098.3238-.3702.2167-.3563-.1075.0134-5.3146 2.5958-11.5724 5.739zm-29.1135-2.4771c.0208.505.1235.6077.2618.2623.1253-.313.1096-.687-.0343-.8309s-.2461.1118-.2275.5686zm182.4374.2063c0 .2523.195.3385.433.1912.239-.1474.434-.3537.434-.459s-.195-.1912-.434-.1912c-.238 0-.433.2068-.433.459zm19.079 4.7803c1.399.6943 2.966 1.2621 3.481 1.2621.804 0 .896.1686.644 1.1733-.162.6454-1.236 2.9139-2.387 5.0411l-2.092 3.8675-1.384-1.8984c-1.959-2.6907-3.969-7.2763-3.666-8.3651.172-.6172.127-.7234-.143-.3359-.283.4066-.657-.0676-1.328-1.6834-1.602-3.8523-1.342-4.1756 1.698-2.1112 1.448.9834 3.777 2.3556 5.177 3.05zm-19.729-2.842c-.716.586-1.514 1.0667-1.775 1.068s-.846.4408-1.3.9773c-.819.9666-.818.9692.041.2896.476-.3775 1.577-1.0103 2.445-1.4069.868-.3962 1.69-1.0142 1.828-1.3727.318-.8291.312-.8265-1.239.4447zm-4.551-.2301c-.358.231-.455.42-.217.42s.726-.189 1.084-.42c.357-.231.455-.42.216-.42-.238 0-.726.189-1.083.42zm17.831 1.1204c.255.9331.563 1.7943.685 1.9135.382.3728-.384-2.7956-.776-3.2138-.205-.218-.165.3671.091 1.3003zm-160.5322 2.7275c-3.9905 2.0553-7.2572 3.8458-7.2598 3.9784-.0022.1331 3.4093-1.4819 7.581-3.5887 6.6812-3.3738 8.4322-4.3824 7.2598-4.1822-.179.0308-3.59 1.7372-7.581 3.7925zm140.7252-2.7405c-.808.6475-.803.6553.134.2015.536-.26.975-.5634.975-.674 0-.3315-.225-.2358-1.109.4725zm24.017 12.6689 1.745 2.5689-1.71 1.67-1.71 1.669-2.165-2.133-2.165-2.1322.016-7.3842.016-7.3847 2.114 5.2787c1.163 2.9035 2.9 6.4346 3.859 7.8475zm-22.908-10.3089c-.391.2522-.444.4225-.134.4269.284.0034.637-.1886.784-.4269.332-.5384.182-.5384-.65 0zm8.14 3.0166c.137.9331-.016 1.2881-.62 1.4437-.657.1695-.626.2159.173.257.802.0412.975-.1764.975-1.2244 0-.7013-.16-1.3735-.355-1.494-.195-.1209-.273.3372-.173 1.0177zm-149.5447 3.0769c-4.2311 2.1337-7.6932 3.9714-7.6932 4.0837 0 .3389 1.6539-.4035 8.5215-3.8263 3.6143-1.8017 6.6977-3.4799 6.852-3.7296.384-.6211.8799-.8452-7.6803 3.4722zm145.9867-2.4003c-.459.3476-.734.7329-.611.856s.578-.1673 1.011-.6458c.922-1.0181.772-1.0966-.4-.2102zm-158.4476 1.9083c0 .2055.2926.4859.6501.6233.3576.137.6502.081.6502-.124 0-.2054-.2926-.4858-.6502-.6232-.3575-.137-.6501-.0811-.6501.1239zm-.7984.8998c0 .596.0984.84.2185.5418.1205-.2978.1205-.7854 0-1.0836-.1201-.2977-.2185-.0541-.2185.5418zm162.249.97c1.956.9397 2.169 1.0623 5.271 3.0292 3.012 1.9097 7.841 8.9833 9.401 13.7713.117.357.228.119.247-.529.018-.649-.444-2.26-1.027-3.58-1.21-2.734-.916-2.739 2.219-.039 2.377 2.047 2.72 3.588 1.416 6.373-.544 1.16-1.15 2.109-1.348 2.109s-.359.186-.359.413c0 .702-3.954 4.747-4.93 5.044-.507.154-1.271.588-1.699.963-.716.63-.752.62-.468-.122.213-.555.153-.709-.193-.495-.316.195-.416.086-.27-.295.137-.358-.379-1.073-1.261-1.745-1.242-.947-1.727-1.854-2.877-5.377-2.099-6.424-7.596-16.3457-10.643-19.208-.585-.55-1.064-1.1538-1.064-1.3419 0-.6128 5.806.1751 7.585 1.0294zm-5.892 1.7558c.204-.0503.346.2423.314.6502-.031.4078.202.6878.517.6224.316-.0655.466.0563.333.2704-.132.2146.532 1.5855 1.477 3.0467 3.539 5.477 7.529 14.808 6.48 15.158-.274.091-.203.352.174.65.893.703 1.397 3.315.64 3.317-.317.001.058.388.833.86 1.485.906 2.01 2.376.664 1.859-.658-.252-.671-.207-.111.393.349.373.881.584 1.183.468.359-.138.456.031.282.485-.147.383-.472.57-.722.415s-.334-.087-.188.151c.147.238-.456.657-1.341.931-1.489.461-1.875.371-5.166-1.203-4.329-2.071-7.999-4.541-10.313-6.941-1.681-1.743-1.733-1.886-1.703-4.702.023-2.134.442-4.108 1.583-7.454.854-2.503 1.807-6.0827 2.12-7.9547l.568-3.4032 1.002 1.2361c.551.6801 1.169 1.1954 1.374 1.1451zm-30.299 9.4097c0 5.086.09 9.156.201 9.045.296-.295.343-17.7469.049-18.0412-.138-.1374-.25 3.9112-.25 8.9962zm48.972-7.0115c-1.602 2.3675-1.597 2.7305.008.599.771-1.0242 1.327-1.9366 1.236-2.028-.092-.0911-.651.5517-1.244 1.429zm-136.9636-.3763c.5924.4551.9825.8925.8668.9713-.1157.0794-6.354 3.2375-13.8631 7.0185-24.3913 12.28-24.8599 12.551-29.0394 16.776-6.2842 6.353-9.6744 13.186-10.3597 20.879-.1963 2.201-.3861 3.222-.4221 2.269-.098-2.593-.5132-3.891-1.016-3.18-.7246 1.026.0087-6.21.8868-8.749 1.9314-5.585 5.4148-11.015 9.4088-14.665 1.9547-1.787 5.0563-3.551 15.3046-8.707 7.0692-3.556 15.7788-8.034 19.3546-9.949 3.5757-1.9157 6.7939-3.4847 7.1515-3.4873.3575-.0021 1.1347.3685 1.7272.8235zm169.0416.3875c4.142.479 10.017 1.2083 15.82 1.9633l3.901.507-2.601 1.473c-1.43.811-4.941 3.073-7.801 5.028-2.861 1.955-6.219 4.067-7.463 4.693-2.316 1.166-3.449 1.491-2.289.657.521-.375.478-.405-.217-.154-.477.173-1.192.349-1.589.391-.397.043-.982.282-1.301.531-.5.393-3.196 1.447-3.702 1.447-.097 0-.031-.237.147-.525s-.407-.093-1.299.434c-2.049 1.208-2.357 1.208-1.317-.002.62-.72.465-.666-.616.216-1.547 1.263-1.748 1.324-6.36 1.934-1.668.221-3.405.563-3.859.761-.758.331-.806.204-.592-1.554.232-1.894.228-1.901-.347-.614-.319.715-.605 1.69-.634 2.167-.037.586-.132.669-.296.256-.132-.336-.605.737-1.05 2.384-.444 1.647-1.361 5.037-2.036 7.534l-1.228 4.539-.291-7.714-.291-7.714 1.52-3.456c1.652-3.758 1.734-4.031 1.086-3.631-.673.416-.52-2.692.201-4.087.349-.675 1.251-1.745 2.003-2.378 1.456-1.226 2.178-1.578 8.632-4.215 4.504-1.8395 5.148-1.8799 13.869-.8713zm-207.1422 1.1853c.0208.505.1235.608.2618.262.1252-.313.1096-.6866-.0343-.8305s-.2461.1118-.2275.5685zm-2.2014.563c0 .239.1951.554.4335.701.2383.148.4334.073.4334-.165 0-.239-.1951-.554-.4334-.701-.2384-.148-.4335-.073-.4335.165zm-1.3002.629c0 .402.3367.72.7584.716.433-.004.5726-.146.3251-.33-.2384-.178-.5795-.5-.7585-.716s-.325-.067-.325.33zm183.3788 3.637c-.415.714-.448.707-.455-.097-.004-.477.135-1.355.309-1.951l.316-1.083.139 1.181c.077.649-.062 1.527-.309 1.95zm-37.748 4.454c.596.19 1.376.363 1.733.383.578.033.578-.01 0-.383-.357-.231-1.137-.404-1.733-.384l-1.084.037zm-4.926 1.332c-.64.502-1.129 1.313-1.113 1.842l.029.943.463-.958c.255-.528.973-1.146 1.596-1.375.624-.229.841-.434.483-.456-.578-.037-.578-.088 0-.461.358-.231.433-.423.167-.427s-.997.398-1.625.892zm4.411-.603c.313.125.687.11.831-.034.143-.144-.112-.246-.569-.228-.505.021-.608.124-.262.262zm3.109 10.648c-.005 4.441-.186 6.965-.553 7.693-.523 1.038-4.27 3.437-5.4 3.458-.396.007-.565-1.25-.628-4.65l-.085-4.659-.24 4.768-.239 4.768-.323-4.985c-.178-2.741-.297-6.35-.264-8.018.052-2.645.099-2.811.37-1.3l.31 1.733.062-1.758c.061-1.758.063-1.759 2.77-2.669 4.544-1.528 4.227-1.95 4.22 5.619zm-8.23-4.117-.001 1.625-3.859 1.625c-5.173 2.179-5.674 2.155-5.674-.272v-1.897l2.492-.89c4.169-1.487 5.053-1.747 6.068-1.782.844-.03.975.184.974 1.591zm26.792-.463c.313.125.687.11.831-.034s-.112-.246-.569-.228c-.505.021-.608.124-.262.262zm45.374 2.017 3.901.504-1.3.904c-2.267 1.575-5.105 2.457-8.235 2.561-4.634.154-8.426.699-11.012 1.584-2.671.915-3.24.987-2.853.362.292-.473-2.303 1.127-4.186 2.58-.63.487-1.496 1.859-1.924 3.047-1.462 4.065-1.138 1.812.453-3.153 2.127-6.639 3.7-8.01 9.336-8.142 1.073-.025 2.438-.202 3.034-.393 1.592-.509 8.31-.433 12.786.146zm-29.787 10.69-.119 4.984-.942-1.32c-.898-1.259-.925-1.57-.582-6.718.197-2.969.516-5.983.709-6.698.305-1.132.396-.908.702 1.734.194 1.668.298 5.276.232 8.018zm-42.38-6.827-.002 3.143-2.017.65-2.016.65.092 4.435.094 4.435-2.397 1.176c-1.318.646-2.548 1.024-2.733.839-.186-.185-.402-3.596-.481-7.579l-.143-7.243 2.527-.793c1.39-.435 3.405-1.246 4.478-1.803 1.072-.556 2.096-1.021 2.275-1.032s.324 1.394.323 3.122zm-22.641-1.944c-1.534.387-2.38.805-2.205 1.089.186.301-.004.351-.545.145-.588-.224-.695-.181-.369.148s1.164.221 2.889-.372c1.336-.46 2.543-.722 2.682-.583.618.617.2 3.197-.656 4.053l-.91.909.952-.302.952-.302-.277 8.169c-.382 11.287-.238 10.717-3.046 12.046-1.289.609-2.531 1.108-2.762 1.108-.474 0-1.128-7.39-.858-9.7.097-.83.022-1.413-.167-1.297-.188.117-.346 2.59-.349 5.496-.004 2.906-.154 5.516-.334 5.799s-1.298.957-2.486 1.498c-1.187.541-2.256 1.041-2.375 1.112-.119.07-.194-2.067-.166-4.749l.05-4.877-.322 4.551c-.177 2.503-.346 4.804-.375 5.114-.053.557-3.235 2.226-4.279 2.244-.403.007-.542-1.264-.542-4.943 0-4.352.092-4.976.758-5.151.723-.188.723-.2 0-.248-.635-.042-.758-.486-.758-2.723 0-1.47-.125-2.548-.278-2.395-.153.152-.238 3.289-.19 6.968.122 9.279.082 9.425-2.993 11.064-1.381.736-2.631 1.339-2.776 1.339s-.265-3.694-.265-8.207v-8.208l1.54-.556c1.228-.444 1.381-.612.758-.833-.753-.267-2.697.339-2.764.862-.069.548-.352 11.261-.375 14.239-.025 3.068-.061 3.171-1.414 3.993-.764.465-1.485.749-1.602.631-.118-.118-.186-3.865-.152-8.327.034-4.463-.051-7.821-.19-7.464-.138.358-.469.932-.735 1.275-.266.344-.286.507-.044.363.417-.249.416 13.444-.001 14.694-.094.281-1.523 1.189-3.175 2.018l-3.003 1.508-.269-2.236c-.148-1.229-.27-4.938-.272-8.241-.004-5.533.056-5.985.754-5.742.723.252.723.236 0-.327-.943-.734-1.02-3.239-.11-3.588.356-.136.533-.432.394-.657-.151-.245-.498-.205-.864.098-.492.409-.613 2.376-.618 10.098-.003 5.275-.114 9.998-.248 10.496-.138.513-1.072 1.307-2.161 1.836l-1.919.932v-3.679c0-2.023-.146-3.678-.325-3.678-.179-.001-.276 1.546-.217 3.438.104 3.312.064 3.469-1.083 4.279-1.216.857-5.527 3.119-5.945 3.119-.127 0-.231-.878-.231-1.951 0-1.268.189-1.952.541-1.957.41-.005.416-.086.028-.333-.282-.18-.588-1.299-.68-2.486-.1-1.303-.198-.557-.245 1.879-.043 2.221-.28 4.415-.527 4.877-.247.461-1.417 1.329-2.6 1.929l-2.152 1.09v-4.175c0-4.78.638-4.413-5.091-2.935l-3.141.811.081 3.034c.079 2.979.083 2.989.236.578.085-1.351.389-2.64.676-2.864.748-.586 4.629-1.832 5.705-1.832 1.086 0 1.275 1.082.876 5.042l-.267 2.659-2.931 1.351c-1.612.742-3.062 1.35-3.222 1.35-.159 0-.29-.694-.29-1.542 0-.918-.176-1.434-.433-1.275-.823.508-.286 6.285.584 6.285.259 0 14.163-6.86 30.898-15.245 23.395-11.723 30.535-15.484 30.895-16.274.537-1.178.672-25.533.144-25.816-.179-.096-1.446.108-2.814.454zm-5.339 2.399c-.131.34-.178 1.707-.106 3.038l.132 2.421 1.734-.803 1.734-.803-1.626.233-1.625.232v-1.704c0-.937.212-1.915.471-2.174.339-.34.339-.554-.003-.765-.261-.161-.581-.015-.711.325zm66.99 1.196c0 .729-.178 1.217-.395 1.082-.217-.134-.329-.585-.249-1.001.079-.416.159-.902.177-1.081.019-.179.131-.326.25-.326.12 0 .217.597.217 1.326zm-17.77.186c0 .116-1.414.919-3.143 1.785-3.531 1.768-3.609 1.593-.224-.51 2.115-1.313 3.367-1.787 3.367-1.275zm-189.4129.981c-.0056.648-.068.664-.4269.108-.322-.498-.4187-.346-.4131.65.007 1.237.0382 1.259.6437.459.6154-.814.8625-1.976.4195-1.976-.1192 0-.2197.342-.2232.759zm206.2079 7.198c.573.658.387.603-.759-.225-.834-.604-2.735-1.824-4.225-2.712-2.595-1.547-3.365-2.419-2.135-2.419.316 0 1.027-.482 1.581-1.071l1.005-1.07 1.888 3.312c1.038 1.822 2.228 3.705 2.645 4.185zm-207.9008-5.97c.0208.504.1235.607.2617.262.1253-.313.1097-.687-.0342-.831s-.2462.112-.2275.569zm146.4628-.253c-.357.231-.455.42-.217.42.239 0 .726-.189 1.084-.42s.455-.42.217-.42c-.239 0-.726.189-1.084.42zm-148.0331.464c-.1626.263-.1045.669.1291.903.2774.277.5136.194.6805-.241.303-.79-.3836-1.351-.8096-.662zm171.0931 6.989c-.211.211-.95.424-1.644.474l-1.262.091v-3.467-3.468l1.517-.491 1.517-.492.127 3.486c.07 1.917-.045 3.657-.255 3.867zm-172.1234-5.467c.0208.505.1235.608.2618.262.1253-.312.1097-.687-.0342-.83-.1439-.144-.2462.111-.2276.568zm-1.5235.308c.163.427.4053.668.5388.534.1335-.133.0004-.482-.2961-.777-.4282-.424-.4776-.375-.2427.243zm202.6269-.112c.798.428.838 1.034.838 12.95 0 9.681-.126 12.606-.559 12.965-.605.502-6.511 3.445-13.681 6.819-2.469 1.161-4.299 2.174-4.068 2.251.611.204 16.174-7.126 17.682-8.328l1.276-1.017v-12.177c0-6.697.062-12.177.139-12.177.076 0 1.018.604 2.093 1.344l1.954 1.345-.143 10.033c-.166 11.643-.408 12.565-4.281 16.338-1.97 1.918-5.362 3.727-28.953 15.438-41.75 20.725-56.521 27.871-57.889 28.009-.903.09-.905.053-.905-15.493v-15.585l39.008-19.567c21.455-10.761 40.569-20.461 42.476-21.554 3.881-2.224 3.852-2.215 5.013-1.594zm9.423.646c-.134.134-.376-.107-.539-.534-.235-.618-.186-.667.243-.243.296.295.429.644.296.777zm-212.9167-.101c.1629.428.4052.668.5387.535s.0005-.483-.296-.777c-.4282-.425-.4776-.375-.2427.242zm142.0577 3.341c0 1.549.078 2.183.174 1.408s.096-2.042 0-2.817-.174-.141-.174 1.409zm5.062-.032c0 1.685-.16 2.169-.759 2.293-.616.128-.576.208.217.425.932.255.975.151.975-2.294 0-1.407-.097-2.559-.216-2.559-.12 0-.217.961-.217 2.135zm-13.402.718c.021.505.124.608.262.262.125-.313.109-.687-.034-.831-.144-.144-.247.112-.228.569zm-142.5964.433c.02081.505.12353.608.26179.263.12526-.313.10966-.687-.03424-.831s-.24618.112-.22755.568zm252.2674-.054c5.014.959 11.669 3.672 13.03 5.311.514.62.139.652-3.98.335-8.009-.614-11.963-.433-16.503.759-2.284.6-4.563 1.31-5.064 1.578s-1.021.487-1.156.487c-1.105 0 1.365-5.683 2.91-6.695.807-.529 5.166-1.951 7.247-2.363.119-.024 1.701.241 3.516.588zm-44.828 1.134c-2.056.576-2.464 1.19-2.464 3.708v2.334l-4.985 2.387-4.984 2.387v2.811c0 2.394.113 2.809.759 2.797.417-.008 3.684-1.519 7.259-3.359 6.441-3.314 6.502-3.359 6.569-4.862.037-.834-.024-1.089-.136-.566-.148.699-1.872 1.882-6.469 4.443-3.447 1.92-6.437 3.491-6.646 3.491-.443 0-.831-3.315-.458-3.918.14-.226 2.486-1.41 5.214-2.63 2.728-1.221 5.478-2.587 6.111-3.037.632-.449 1.34-.817 1.571-.817.909 0 1.044-4.879.148-5.365-.148-.081-.818.007-1.489.196zm17.665.931c.984 1.404 1.026 34.144.045 34.144-.787 0-1.031-1.363-1.437-8.018-.415-6.818-.168-27.089.33-27.089.213 0 .691.433 1.062.963zm-16.228 1.194c0 1.359-.229 1.873-1.08 2.432-1.544 1.011-2.388.522-2.388-1.385 0-1.752.888-2.734 2.492-2.757.85-.012.976.207.976 1.71zm-59.921-1.003c.298.12.786.12 1.083 0 .299-.12.055-.219-.541-.219s-.84.099-.542.219zm2.715.431c-.005.753.18.885.958.682.678-.177.775-.313.325-.458-.352-.113-.783-.42-.958-.682-.185-.277-.321-.086-.325.458zm-4.422.011c.313.125.687.11.831-.034s-.112-.246-.569-.228c-.505.021-.607.124-.262.262zm-126.4783.504c0 .51 1.4823 1.801 2.0674 1.801 1.0849 0 .9111-.874-.2982-1.499-1.4797-.765-1.7692-.814-1.7692-.302zm131.9773 1.838c-1.192.46-1.603.726-.914.593 1.362-.265 4.219-1.425 3.515-1.428-.239-.001-1.409.375-2.601.835zm102.016 1.55c-.537.65-.51.667.287.17.667-.415 1.919-.458 5.143-.177l4.261.37-3.409 2.465c-1.875 1.357-5.324 4.227-7.664 6.38-5.336 4.906-6.37 5.192-11.474 3.163-1.418-.563-1.812-.926-1.659-1.525.19-.742.139-.746-.881-.078-.645.423-1.751.661-2.741.589-1.767-.127-3.024.581-3.079 1.737-.021.425-.12.496-.248.179-.118-.29.319-1.714.97-3.165 2.278-5.076 7.796-8.626 15.526-9.987 5.774-1.017 5.707-1.016 4.968-.121zm-107.108 1.3c.298.121.785.121 1.083 0 .298-.12.054-.218-.542-.218s-.839.098-.541.218zm-16.579 3.22c-1.192.434-1.819.798-1.395.808.877.022 3.779-1.112 3.779-1.475 0-.132-.049-.213-.108-.181-.06.032-1.084.413-2.276.848zm71.082 6.534c-7.323 3.688-7.399 3.731-7.116 4 .1.094 3.594-1.554 7.766-3.661 4.171-2.108 7.292-3.832 6.934-3.832-.357 0-3.77 1.572-7.584 3.493zm-45.293-2.463c0 .241-3.828 2.222-5.553 2.873-2.004.756-.436-.439 2.368-1.804 2.549-1.242 3.185-1.456 3.185-1.069zm-134.9233 3.981c-.3104.503.413 1.737.7944 1.356.1543-.154.0941-.613-.133-1.019s-.5249-.557-.6614-.337zm-1.3163.433c-.5453.545-.2891 1.878.361 1.878.3576 0 .6501-.207.6501-.459s-.1768-.35-.3931-.216c-.2158.133-.2908-.148-.166-.625.2315-.884.0655-1.096-.452-.578zm219.5766.076c.666.263.534.533-.975 2.008-.96.937-1.745 1.957-1.745 2.266 0 .966-.725.622-2.181-1.036l-1.403-1.598 1.166-1.003c1.176-1.011 3.47-1.296 5.138-.637zm-220.8492 1.837c.1535.585.3498.782.4582.458.104-.313-.0165-.775-.2688-1.027-.3216-.322-.3779-.152-.1894.569zm220.8412 1.157c-.936 1.132-2.159 2.885-2.718 3.896-.558 1.01-1.087 1.765-1.175 1.677-.341-.341 3.052-5.943 4.096-6.765 1.699-1.336 1.65-1.049-.203 1.192zm-67.68-.796c-.354.224-.505.759-.365 1.294.131.501.084.816-.104.7s-.804.15-1.368.592c-.565.441-2.245 1.417-3.735 2.167-1.49.751-2.709 1.568-2.709 1.817s-.195.333-.433.185c-.239-.147-.434-.028-.434.264s-.118.412-.263.268c-.144-.145-.669.115-1.165.578-.496.462-1.234.841-1.64.841-.405 0-1.197.39-1.76.866l-1.023.867 1.734-.778c3.794-1.702 10.911-5.439 12.192-6.402.851-.639 1.429-1.511 1.55-2.338.107-.724.179-1.314.161-1.311-.019.004-.306.179-.638.39zm-157.3446 1.157c.0208.505.1236.607.2618.262.1253-.313.1097-.687-.0342-.831s-.2462.112-.2276.569zm218.7216 1.517c-.388.621-.382.932.026 1.34.419.419.531.284.531-.639 0-1.293.29-1.417 1.379-.589.665.505.502.958-1.817 5.061-1.401 2.478-2.66 4.952-2.797 5.499-.244.971-1.262 1.351-1.704.635-.235-.381 1.292-6.247 2.832-10.876.825-2.478.988-2.698 1.491-2.011.436.597.449.955.059 1.58zm-116.034.397c.357.231.942.41 1.3.396.429-.015.355-.15-.217-.396-1.191-.512-1.876-.512-1.083 0zm2.519-.137c.313.125.687.109.831-.034.143-.144-.112-.247-.569-.228-.505.021-.608.124-.262.262zm-109.7918.571c.1474.238.3537.433.459.433.1054 0 .1912-.195.1912-.433 0-.239-.2068-.434-.459-.434-.2523 0-.3385.195-.1912.434zm211.6968 4.009c.063 2.443.144 4.91.181 5.482s-.157 1.118-.43 1.213c-.31.108-.868-1.368-1.486-3.932l-.989-4.104 1.183-1.551c.65-.853 1.238-1.551 1.305-1.551.068 0 .174 2 .236 4.443zm-106.375-3.576c-.546.235-.626.372-.216.372.357 0 1.04-.167 1.516-.372.547-.235.627-.372.217-.372-.357 0-1.04.167-1.517.372zm-19.454 1.183c-.181.184-.949.576-1.706.872l-1.378.538 1.517-.285c.835-.156 1.871-.263 2.303-.237.433.026.713-.174.624-.443-.212-.634-.939-.872-1.36-.445zm-6.2972 2.134c-.9843.689-1.0142.873-.7954 4.876.1773 3.235.0928 4.285-.3792 4.724-.3342.31-.83.426-1.1022.258-.3107-.192-.3758-.113-.1747.212.1799.291.6979.398 1.1837.244.8305-.264.8526-.135.573 3.341-.2288 2.849-.4755 3.776-1.162 4.372-.4794.416-1.0459.648-1.2595.516-.2137-.132-.4213-1.74-.4612-3.573-.0403-1.834-.1478-2.633-.2388-1.777-.1309 1.228-.4599 1.713-1.5525 2.292-1.2596.666-.8591.669.7806.006.5227-.212.6501.133.6501 1.757v2.021l-2.4922 1.066c-1.3709.586-2.8307 1.257-3.2446 1.493-1.1078.629-1.1932.561-1.2483-.982-.0299-.832-.1252-1.054-.2336-.541-.101.476-.2678 1.269-.371 1.761-.1339.638-1.4376 1.494-4.534 2.979-3.9845 1.911-4.3464 2.186-4.3464 3.306 0 .672.1768 1.33.3931 1.464s2.0206-.453 4.0092-1.304c4.8322-2.068 21.6231-10.512 22.5781-11.356.676-.596.753-1.568.708-8.945-.027-4.552-.141-7.886-.253-7.409-.112.476-.528 1.136-.925 1.467-.665.552-.659.578.07.325.746-.258.784.065.65 5.532-.119 4.89-.267 5.945-.934 6.681-.764.843-5.3551 2.967-5.6845 2.63-.0884-.091-.2276-3.14-.3095-6.775l-.1482-6.611 1.517-.019c.8343-.01 2.1022-.3 2.8172-.645 1.009-.486 1.057-.557.217-.317-.596.17-1.864.314-2.8175.32-1.6305.011-1.7415-.069-1.8663-1.352-.1218-1.257.0151-1.417 1.7337-2.025 1.4841-.525 1.6421-.667.771-.694-.6029-.019-1.556.288-2.1181.682zm-36.4449 36.775c0 20.461.0954 37.106.212 36.99.2864-.287.3007-73.68.0143-73.966-.1244-.124-.2263 16.515-.2263 36.976zm165.1041-32.706c.03 1.523.003 1.546-3.762 3.155-4.807 2.055-8.264 4.422-9.282 6.356-.663 1.258-.795 2.531-.795 7.63v6.12l-13.545 6.513c-7.449 3.581-19.588 9.412-26.975 12.957-11.854 5.688-47.203 23.339-90.4483 45.164-11.9798 6.047-14.5249 7.177-16.5303 7.343-2.2127.184-2.4762.1-3.9546-1.261l-1.5842-1.459-.244-5.201c-.2596-5.532.1296-7.585 1.4385-7.585.4092 0 8.4596-3.833 17.8896-8.517 33.8503-16.816 67.6553-33.525 67.8243-33.525.095 0 3.848-1.777 8.338-3.949s9.724-4.679 11.631-5.573c1.907-.893 7.076-3.389 11.486-5.547 7.727-3.782 15.54-7.469 15.828-7.469.142 0 10.1-4.67 12.752-5.981.82-.405 2.859-1.566 4.531-2.579s3.214-1.842 3.427-1.842c.602 0 9.619-5.975 10.521-6.971.76-.84.819-.845 1.113-.1.171.432.324 1.477.341 2.321zm-55.118 4.275c-6.374 3.275-11.738 6.119-11.919 6.319-.182.2-.087.223.21.052s.882-.384 1.3-.473c.419-.089 5.506-2.613 11.306-5.609 5.8-2.997 10.725-5.449 10.944-5.449.459 0 .512 2.07.115 4.477-.344 2.082-.433 2.138-13.911 8.923-9.543 4.804-12.291 6.326-9.502 5.266 2.313-.88 21.834-10.833 22.83-11.641.986-.801 1.083-1.179 1.083-4.237 0-1.875-.191-3.408-.433-3.471-.239-.062-5.649 2.567-12.023 5.843zm-7.94-4.486c-.794.636-.78.645.242.159 1.327-.632 1.572-.833 1.022-.833-.233 0-.801.304-1.264.674zm-129.6197.433c.1687.439.0837.565-.244.362-.3458-.214-.4061-.06-.1933.495.2921.761.2566.759-.6445-.037l-.9535-.843.2631 1.084c.2505 1.03.2327 1.042-.3654.242-.3454-.463-.6285-.632-.6285-.376s-.39.568-.8668.693c-.4768.124-.8669.537-.8669.917 0 .815 1.234.934 1.5357.149.1144-.298.6978-.57 1.2963-.605.5982-.035 1.3762-.302 1.7285-.595.7473-.62.8617-2.159.1608-2.159-.2639 0-.3636.302-.2215.673zm-3.1995 2.361c0 .238-.2067.433-.459.433-.2522 0-.3385-.195-.1911-.433.1473-.239.3536-.434.459-.434.1053 0 .1911.195.1911.434zm124.8262 1.083c-1.073.575-1.755 1.045-1.517 1.045s1.311-.47 2.384-1.045c1.072-.574 1.755-1.044 1.517-1.044-.239 0-1.311.47-2.384 1.044zm75.652 3.04c.443 3.548.017 3.738-.717.319-.504-2.348-.531-3.004-.114-2.844.298.114.672 1.251.831 2.525zm2.364-1.28c0 .918-.175 1.434-.433 1.274-.239-.147-.434-.841-.434-1.542s.195-1.275.434-1.275c.238 0 .433.694.433 1.543zm2.454-.134c-.12.298-.218.054-.218-.542s.098-.84.218-.542c.121.298.121.786 0 1.084zm-117.069-.311c-.463.349-1.048.629-1.3.621-.253-.009.028-.295.624-.635 1.404-.803 1.746-.796.676.014zm127.91.938c4.649 1.849 7.15 5.307 6.468 8.943-.418 2.23-3.667 5.629-6.897 7.215-7.251 3.561-18.224 3.486-25.652-.173-4.189-2.065-5.915-3.93-6.179-6.677-.395-4.106 1.041-6.288 5.729-8.706 3.184-1.642 5.201-2.071 6.127-1.302.593.491.219.8-2.809 2.324-7.907 3.979-8.99 7.854-3.171 11.349 6.346 3.814 17.69 4.135 25.345.717 5.666-2.53 6.73-6.74 2.494-9.865-1.634-1.205-5.629-2.827-6.965-2.827-.997 0-1.007-.047-.339-1.514.598-1.313 1.438-1.239 5.849.516zm-99.113 1.418c0 .231.293.307.65.17.358-.137.651-.326.651-.42 0-.093-.293-.17-.651-.17-.357 0-.65.189-.65.42zm-34.045.378c-.976.862-3.663 2.274-3.663 1.924 0-.212.83-.801 1.842-1.309 2.039-1.025 2.435-1.158 1.821-.615zm-25.8483.365c.3125.125.6866.11.8305-.034s-.1119-.246-.5687-.228c-.5049.021-.6077.124-.2618.262zm139.7253.433c-.461.185-.453.362.043.941.871 1.018 1.207 2.16.723 2.459-.228.141-.414.082-.414-.13 0-.213-.439-.348-.976-.302-.536.047-1.218-.107-1.517-.342-.514-.406-.763.075-.582 1.12.034.196-.141.231-.389.078s-.341-.456-.207-.673c.133-.217.007-.837-.281-1.379-.478-.898-.46-.931.206-.381.648.535.697.51.424-.217-.282-.75-.239-.764.504-.169.748.597.789.58.513-.217-.225-.652-.025-.559.808.375.609.683 1.228 1.121 1.376.973.148-.147-.189-.755-.748-1.35l-1.016-1.082 1.051.035c.578.018.795.136.482.261zm-139.7253.434c.3125.125.6866.109.8305-.034.1439-.144-.1119-.247-.5687-.228-.5049.021-.6077.124-.2618.262zm155.3533.383c1.948.664 1.984.71 1.552 1.951-.457 1.31-.969 1.602-1.448.826-.152-.244-.043-.39.24-.325.283.066.589-.32.679-.856.091-.536.02-.984-.157-.994-.999-.059-4.507-1.227-3.759-1.252.494-.016 1.796.277 2.893.65zm-156.9257 2.293c-.0599 2.054.0576 2.7.4616 2.54 3.2931-1.311 4.2362-1.745 4.0936-1.888-.0923-.093-.8746.127-1.7376.488-.8634.36-1.761.655-1.9946.655s-.4962-1.023-.5838-2.275c-.1591-2.273-.1591-2.272-.2392.48zm155.4677-1.625c1.087.379 1.277.604.895 1.065-.267.321-.379.755-.25.964s-.032.38-.358.38c-.445 0-.495-.257-.202-1.029.285-.748.244-1.011-.146-.96-1.16.149-2.055-.054-2.055-.467 0-.555.415-.546 2.116.047zm-18.143 1.459c-.24.288-.291.679-.114.868.176.189-.069.149-.546-.089-.476-.239-1.11-.347-1.408-.24-.309.11-.539-.148-.536-.6.004-.444.148-.603.325-.361.176.238.687.496 1.136.574.646.111.767-.054.576-.783-.199-.764-.133-.835.38-.409.428.356.486.679.187 1.04zm1.941-1.073c-.148.239-.208.449-.134.467 1.427.354 1.67.295 1.188-.285-.607-.731-.704-.748-1.054-.182zm-78.598.867c0 .596.098.84.218.542.121-.298.121-.785 0-1.083-.12-.298-.218-.055-.218.541zm93.984.23c0 .391-.259.511-.721.333-.523-.201-.624-.119-.367.298.237.381.188.47-.145.264-.801-.495-.578-1.368.367-1.439.486-.037.866.202.866.544zm-221.445.456c.0208.505.1236.608.2618.263.1253-.313.1097-.687-.0342-.831s-.2462.112-.2276.568zm136.711.294c-2.228 1.233-2.124 1.16-1.914 1.358.099.094 1.231-.394 2.516-1.083 1.284-.69 2.064-1.25 1.733-1.245-.33.006-1.381.442-2.335.97zm-133.0425.291c-.1374.222-.0511.525.1912.675s.4403-.032.4403-.403c0-.762-.26-.873-.6315-.272zm134.2025.407c-.345.219-.518.95-.434 1.832l.141 1.468.481-1.839c.265-1.011.46-1.835.434-1.832-.027.004-.307.17-.622.371zm68.838 1.169c0 .503-.254.602-.975.384-.796-.24-.876-.189-.434.275.753.79.681 1.157-.336 1.701-1.499.802-3.745.907-4.33.202-.438-.527-.388-.642.279-.648.682-.005.708-.073.161-.426-.553-.358-.534-.422.123-.427.424-.004.929.417 1.12.934.241.65.449.779.674.414.179-.289.089-.81-.198-1.157-.423-.509-.388-.631.179-.631 1.049 0 1.024.007 2.318-.668 1.481-.773 1.419-.775 1.419.047zm-77.327 1.922c-2.124 1.191-4.005 2.166-4.18 2.166-.744 0-.812 1.445-.092 1.976.666.493.785.444.915-.38.227-1.43.862-1.996 3.795-3.382 2.173-1.027 4.32-2.552 3.585-2.547-.089.001-1.899.976-4.023 2.167zm-123.9984-.868c.1474.238.3537.434.459.434s.1911-.196.1911-.434-.2067-.433-.459-.433c-.2522 0-.3385.195-.1911.433zm198.0934-.03c-.137.222-.051.526.191.676.242.149.44-.032.44-.404 0-.761-.26-.873-.631-.272zm-125.9283.68c-.2969.358-.8569.644-1.2448.637-.593-.012-.5713-.116.1356-.651 1.0953-.828 1.8009-.819 1.1092.014zm105.6473 1.384-2.059 1.146v2.723 2.723l1.625-.749c3.212-1.48 3.576-1.793 3.576-3.07 0-1.644-.475-3.943-.813-3.93-.149.006-1.197.527-2.329 1.157zm-107.8144-.365c0 .412-9.5493 4.963-9.8284 4.684-.4057-.405 7.8736-4.998 9.0699-5.031.4169-.012.7585.144.7585.347zm54.7604.734c-.39 1.016.032 1.136.629.178.335-.536.364-.847.079-.847-.248 0-.566.301-.708.669zm55.329 1.452c0 2.045-.057 2.143-1.625 2.773-.894.359-1.648.624-1.674.588-.027-.035-.155-.898-.285-1.916-.228-1.78-.175-1.885 1.349-2.69.872-.461 1.731-.846 1.91-.857s.325.935.325 2.102zm21.517.209c-.643.952-1.765 1.004-2.826.131-.485-.399-.371-.583.611-.984.663-.271 1.573-.398 2.021-.28.732.191.752.306.194 1.133zm-196.0782-.743c-.2978.121-.5418.508-.5418.863 0 .919 1.9044.562 2.086-.391.1413-.741-.439-.918-1.5442-.472zm120.1672 3.337c-7.819 3.773-9.365 4.59-8.669 4.576.585-.01 17.02-8.121 16.47-8.127-.238-.002-3.749 1.595-7.801 3.551zm80.935-2.582c.666.994.306 1.559-.994 1.559-.946 0-1.233-.156-1.001-.542.255-.424.179-.423-.352.006-.424.344-1.023.421-1.601.207-.854-.315-.874-.413-.268-1.279.543-.774.938-.892 2.277-.681.891.141 1.764.469 1.939.73zm-199.9103-.175c0 .238-.3043.433-.6757.433-.3715 0-.5553-.195-.4079-.433s.4512-.433.6757-.433.4079.195.4079.433zm186.4863 2.532c4.622 2.626 8.653 3.677 14.847 3.872 4.604.145 6.319.016 9.318-.698 2.022-.482 4.05-1.021 4.506-1.198.614-.238.741-.176.487.234-.199.323-.112.699.209.897.623.386.271 1.729-.454 1.729-.259 0-.36-.181-.223-.403s.093-.501-.099-.619c-.192-.119-.39.279-.44.883-.082.99.026 1.07 1.076.807l1.167-.293-1.059.882c-.583.485-.828.888-.544.896s.637-.181.784-.419c.148-.239.501-.428.785-.42.31.009.242.224-.173.542-.378.29-.606.772-.505 1.07.277.823-.857 3.076-1.437 2.854-.33-.127-.441.159-.317.812.16.838-.13 1.164-1.733 1.942-3.042 1.478-6.669 1.998-12.319 1.766-4.164-.171-5.704-.431-8.356-1.411-3.955-1.462-6.571-3.199-8.015-5.324-.982-1.446-1.086-2.018-1.086-5.977 0-4.337.271-5.571.956-4.347.195.349 1.376 1.214 2.625 1.923zm15.489-1.851c0 .613.07.611.696-.015.446-.445.875-.553 1.192-.299.273.218 1.032.336 1.688.261s1.192.026 1.192.222c0 .558-1.482.988-1.652.479-.097-.291-.351-.255-.706.1-.459.459-1.543.57-3.334.34-.152-.019-.377-.425-.502-.902-.168-.643-.013-.867.6-.867.462 0 .826.3.826.681zm7.286-.281c.312.019.44.238.286.488-.192.31-.474.294-.892-.053-.44-.365-.612-.371-.612-.021 0 .267-.195.486-.433.486-.239 0-.434-.275-.434-.612 0-.349.326-.549.759-.466.417.08 1.014.16 1.326.178zm-45.285 1.099c-1.535.668-2.331 1.844-2.265 3.348.036.806.107.74.364-.334.448-1.871.712-2.198 2.191-2.714l1.302-.454v1.917c0 1.695-.152 1.995-1.313 2.596-.723.373-1.503.562-1.734.419s-.421.039-.421.405c0 .534.218.582 1.113.241 2.65-1.007 2.788-1.19 2.788-3.688 0-1.302-.146-2.36-.325-2.351s-.944.286-1.7.615zm-165.2766.327c0 .452.5023.421 1.2946-.08.5067-.32.4373-.392-.325-.334-.5332.04-.9696.226-.9696.414zm110.6036 2.617.08 2.708.162-2.374c.09-1.306.395-2.522.679-2.702.346-.22.266-.33-.243-.335-.651-.005-.747.379-.678 2.703zm4.288-1.59c.021.505.123.608.262.262.125-.313.109-.687-.034-.83-.144-.144-.247.111-.228.568zm-113.6772.508c-.1833.67-.4841.893-.9574.712-.3797-.146-.6904-.049-.6904.215s.244.477.5418.473c.9951-.012 1.7124-.739 1.5421-1.562-.1487-.719-.2003-.699-.4361.162zm-1.2955-.031c.3125.125.6866.11.8305-.034s-.1118-.246-.5687-.228c-.5049.021-.6076.124-.2618.262zm84.2317 1.438c-.043.596-.199 1.571-.348 2.167-.207.831-.148.971.252.599.302-.28.449-1.195.349-2.167-.098-.953-.208-1.213-.253-.599zm74.483-.11c-.935.468-1.534 1.093-1.56 1.627-.026.535.023.599.131.167.143-.578 1.806-1.684 2.532-1.684.531 0 .103 2.422-.562 3.181-.728.833-.724.855.109.577.608-.203.479.032-.434.791-.715.594-1.078 1.082-.806 1.083.271.001.916-.34 1.433-.759.802-.649.92-1.126.807-3.251l-.134-2.491zm-165.9429 1.302c.0538 1.081.0772 1.097.2523.175.143-.751.41-.96 1.0246-.799.4573.119.8313.041.8313-.176 0-.216-.4876-.392-1.0836-.392-.9075 0-1.074.193-1.0246 1.192zm6.8763-.217c-.0004.179.4872.325 1.0831.325.596 0 1.0836-.174 1.0836-.388 0-.213-.4876-.359-1.0831-.325-.596.035-1.0836.209-1.0836.388zm-5.8517 1.192c-.1473.238-.0728.433.1656.433s.5539-.195.7013-.433c.1474-.239.0728-.434-.1656-.434s-.5539.195-.7013.434zm6.4013-.133c.4217.11 1.0068.102 1.3003-.016.2934-.119-.0516-.209-.7668-.2-.7151.008-.9552.106-.5335.216zm75.733 1.433c-.835.457-1.361.839-1.171.849.459.024 2.904-1.247 2.904-1.51 0-.284-.025-.274-1.733.661zm77.474-.255c-1.054.374-1.192.641-1.192 2.318 0 1.765.068 1.876.975 1.602 1.486-.449 1.693-.804 1.545-2.644-.132-1.65-.17-1.686-1.328-1.276zm-153.3236.255c0 .238.4876.433 1.0835.433.596 0 1.0836-.195 1.0836-.433s-.4876-.433-1.0836-.433c-.5959 0-1.0835.195-1.0835.433zm-6.8663.867c0 .596.0984.84.2184.542.1205-.298.1205-.786 0-1.084-.12-.298-.2184-.054-.2184.542zm1.266.253c.0208.504.1236.607.2618.262.1253-.313.1097-.687-.0342-.831s-.2462.112-.2276.569zm72.781 3.259c-8.1518 4.185-7.1914 4.266 1.517.129 2.4519-1.165 6.3019-3.728 5.4179-3.607-.119.016-3.24 1.582-6.9349 3.478zm78.8419-2.104-2.776 1.409-.13 2.752c-.072 1.514.026 2.685.217 2.601.19-.083 1.55-.708 3.02-1.387l2.674-1.236.143-2.774c.079-1.526.028-2.774-.114-2.774s-1.507.634-3.034 1.409zm-146.456-.596c0 .209.491.38 1.0913.38s1.1971-.171 1.3259-.38c.1291-.208-.3624-.379-1.0914-.379s-1.3258.171-1.3258.379zm149.098 2.23v2.176l-2.276 1.014c-1.251.558-2.421.932-2.6.833-.179-.1-.325-1.02-.325-2.044 0-1.847.021-1.872 2.492-3 1.371-.626 2.541-1.141 2.6-1.146.06-.004.109.971.109 2.167zm67.614-1.716c0 .252.195.338.433.191.239-.148.434-.354.434-.459 0-.106-.195-.191-.434-.191-.238 0-.433.206-.433.459zm-216.3181.489c-.4837.343-.4529.383.1479.19.9825-.317.9851.425.0034.975-.4152.232-.6068.57-.426.751.1807.18.5595.098.8417-.184.2821-.282.6826-.513.8902-.513.2081 0 .072.306-.3025.68-.5262.526-.5743.878-.2124 1.554.257.481.3546.987.2159 1.126-.1387.138-.2519.024-.2519-.254s-.2925-.506-.6501-.506-.6501.293-.6501.65c0 .903 2.1181.85 2.4679-.062.1595-.416-.013-.923-.4135-1.215-.6246-.457-.6215-.544.0347-.958.5842-.369.6198-.579.1872-1.101-.2943-.354-.4308-.749-.3034-.876.4516-.452-.9778-.685-1.579-.257zm-6.8953 1.002c0 .358.0767.65.1703.65.0937 0 .2826-.292.42-.65.137-.357.0603-.65-.1703-.65-.231 0-.42.293-.42.65zm81.7034-.221c-.152.245.022.318.408.17.751-.288.888-.599.265-.599-.225 0-.527.193-.673.429zm8.015.467c-.517.367-.457.407.293.197.748-.21.973-.059 1.092.73.388 2.588.423 2.563-13.239 9.582-11.9922 6.162-21.3784 10.7-22.1304 10.7-.1669 0-.2436-.915-.1712-2.031.1239-1.903.2561-2.103 2.0826-3.155 1.0727-.618 5.2643-2.679 9.3147-4.579 10.4103-4.883 21.8913-10.55 21.8913-10.804 0-.118-.438-.044-.975.165-1.086.422-24.2771 11.647-29.3642 14.213l-3.2506 1.64-.1331 2.337c-.0733 1.286.0242 2.495.2167 2.687.5158.516 33.5102-15.52 36.0192-17.506.802-.634.515-4.378-.345-4.526-.358-.061-.943.096-1.301.35zm107.207 4.079c4.155 2.029 7.404 2.817 12.86 3.123 4.175.235 9.629-.398 12.313-1.428.4-.154.893.277 1.379 1.205.902 1.723 2.29 6.658 2.146 7.634-.161 1.1-4.74 3.149-8.611 3.853-2.455.446-5.023.572-8.319.407-7.811-.391-12.416-2.04-15.729-5.634l-1.824-1.98v-5.876-5.876l1.342 1.53c.739.841 2.738 2.21 4.443 3.042zm32.716 1.635-.075 5.309-.274-4.768c-.254-4.394-.191-5.851.252-5.851.094 0 .137 2.39.097 5.31zm-46.737-4.558c-2.282.701-12.569 6.003-12.569 6.478 0 .365 2.457-.658 6.61-2.751 3.635-1.832 6.691-3.394 6.79-3.472.36-.279-.196-.45-.831-.255zm-182.471 1.075c0 .187.3901.34.8669.34.4767 0 .8668-.153.8668-.34 0-.188-.3901-.341-.8668-.341-.4768 0-.8669.153-.8669.341zm180.639 2.3c-5.509 2.404-10.811 5.042-9.437 4.697 1.034-.26 13.457-5.695 13.834-6.052.723-.685-.785-.221-4.397 1.355zm-.118 2.543c-6.555 2.875-8.37 3.826-7.719 4.047.284.095 3.502-1.284 7.152-3.066 3.649-1.782 6.44-3.245 6.202-3.251-.239-.006-2.774 1.015-5.635 2.27zm-115.9408-.294c-1.7879.844-3.3161 1.705-3.3959 1.916-.0802.21-.2951.29-.478.176-.183-.113-.7026.075-1.1551.417-.798.605-.7954.623.0945.637.504.007 1.3817-.331 1.9504-.751 1.5399-1.14 4.342-2.554 5.693-2.872.6553-.155 1.1919-.472 1.1919-.706 0-.608-.2835-.523-3.9008 1.183zm-6.068.992c-.8343.457-1.3219.831-1.0835.831s1.1161-.374 1.9504-.831c.8343-.456 1.3219-.83 1.0836-.83-.2384 0-1.1161.374-1.9505.83zm-2.9256 1.396c-.5365.259-.9752.636-.9752.838 0 .633.7009.402 1.517-.5.8816-.974.8361-1.002-.5418-.338zm1.8451 1.634c-.1517.245.0221.318.4079.17.7507-.288.888-.599.2648-.599-.2245 0-.5271.193-.6727.429zm135.5303 4.964c4.005 3.428 9.935 5.139 17.899 5.165 3.099.01 5.756.195 5.906.412s.182.741.071 1.163c-.254.972-2.112 1.292-7.533 1.298-8.436.01-16.236-3.211-17.91-7.394-1.081-2.701-.916-2.769 1.567-.644zm-189.4946.217c0 .437 1.7012 1.758 2.2638 1.758.6844 0 .3095-1.284-.5015-1.718-1.0445-.559-1.7623-.576-1.7623-.04zm146.8756 5.513c-.54.654-.504.673.38.202 1.009-.538 1.257-.923.595-.923-.209 0-.648.325-.975.721zm-157.7112 1.854c0 .225.1929.527.4287.673.2453.151.3181-.022.1703-.408-.2882-.751-.599-.888-.599-.265zm-.8668.434c0 .224.1929.527.4286.672.2454.152.3182-.022.1704-.408-.2883-.75-.599-.888-.599-.264zm-.8669.433c0 .224.1929.527.4287.673.2453.151.3181-.022.1703-.408-.2882-.751-.599-.888-.599-.265zm-1.4628.371c-.1174.191-.0346.629.1847.976.3107.491.3996.415.4048-.346.0065-1.003-.2137-1.238-.5895-.63zm153.5617 6.687c2.246 1.257 4.15 2.487 4.23 2.732.273.838-4.759 3.602-26.537 14.577-26.265 13.236-23.688 12.601-31.73 7.821-2.92-1.736-5.309-3.279-5.309-3.429s.129-.143.286.014c.158.158.503-.147.767-.677.621-1.246 9.43-8.016 13.9-10.682 3.281-1.958 6.59-3.762 15.603-8.508 12.624-6.646 15.095-8.022 15.31-8.527.151-.353 6.833 2.958 13.48 6.679zm3.5-6.429c0 .094-.302.287-.672.429-.386.148-.56.075-.408-.17.254-.413 1.08-.61 1.08-.259zm-158.1994.646c0 .238.195.554.4334.701s.4334.073.4334-.166c0-.238-.195-.554-.4334-.701s-.4334-.073-.4334.166zm-1.3068.809c-.0052.582-.0923.624-.3736.18-.27522-.434-.42995-.335-.62153.397-.21541.825-.358.889-.92666.417-.41435-.344-.67223-.381-.67223-.097 0 .864.83954.982 2.15455.302 1.23567-.639 1.82777-1.957.87937-1.957-.2383 0-.4364.341-.4399.758zm171.2092 5.743c-.835.457-1.322.831-1.084.831.239 0 1.116-.374 1.951-.831.834-.457 1.322-.83 1.083-.83-.238 0-1.116.373-1.95.83zm-4.009 1.763c-.894.472-1.626.955-1.626 1.073 0 .194 3.424-1.406 3.865-1.806.499-.451-.803-.025-2.239.733zm-147.9735 1.506c-.3316.865-.0204 1.155.872.813.3919-.151.7122-.583.7122-.96 0-.558-.1223-.529-.651.154-.5431.702-.6073.716-.3871.083.3251-.934-.1894-1.018-.5461-.09zm72.1235 1.309c-2.0852 1.063-3.7921 2.125-3.7921 2.359s1.8529-.495 4.1171-1.62c2.265-1.125 4.118-2.196 4.118-2.381 0-.555-.487-.375-4.443 1.642zm-73.7983-.651c-.1582.498-.1725 1.022-.0312 1.162.1409.141.2562.018.2562-.274 0-.293.195-.411.4334-.264s.4334-.025.4334-.382c0-1.053-.7797-1.225-1.0918-.242zm144.7373 1.164c-.241.687-1.335 1.797-2.576 2.615-1.187.781-12.204 6.467-24.484 12.635-23.717 11.913-24.739 12.319-28.44 11.283-2.181-.611-9.048-4.867-9.421-5.84-.465-1.211.447-.97 5.082 1.344 7.162 3.575 5.848 3.872 24.854-5.617 19.23-9.601 31.527-16.025 33.286-17.39 1.561-1.211 2.315-.781 1.699.97zm-146.861-.513c-.8149.815-.9141 2.072-.1435 1.815.2982-.099.5661-.408.596-.686.1495-1.394.2531-1.52.5959-.722.3039.706.378.731.4031.133.0442-1.066-.6627-1.329-1.4515-.54zm-2.2543 1.253c-.2986.778.1855 1.64.7321 1.302.5491-.339.5132-1.932-.0434-1.932-.2461 0-.556.283-.6887.63zm-1.8138 1.321c.0086.715.1057.955.2158.533s.1027-1.007-.016-1.3c-.1188-.294-.2085.051-.1998.767zm62.6535 3.789-9.4269 4.84v1.862c0 1.023.1191 1.861.2648 1.861.1456 0 2.145-.905 4.4426-2.011 2.2975-1.106 6.5612-3.146 9.4746-4.533 4.2242-2.012 5.3506-2.737 5.5622-3.58.3393-1.352.1023-2.991-.4569-3.153-.2383-.07-4.6757 2.052-9.8604 4.714zm-61.837-3.753c.0208.505.1236.607.2618.262.1253-.313.1097-.687-.0342-.831s-.2462.112-.2276.569zm8.6494.162c-.4091.258-.6098 1.024-.5652 2.153.0386.963-.0658 1.719-.2318 1.68s-.9072.293-1.647.738c-1.2513.752-1.3424.972-1.3003 3.153l.0451 2.345-5.7654 3.043c-3.1705 1.674-5.6818 3.126-5.5795 3.228.1019.102 2.8424-1.126 6.09-2.729l5.905-2.915v-2.514-2.514l2.1671-1.099c1.1919-.604 2.1671-1.322 2.1671-1.596s-.1183-.38-.2631-.236c-.1443.145-.5088.033-.81-.248-.4005-.374-.4274-.774-.101-1.491.5782-1.269 1.3133-1.273.9644-.004-.261.947-.2497.951.4039.133.3702-.462.6727-.999.6727-1.191 0-.474-1.3662-.433-2.152.064zm62.8313.844c0 1.035-.3489 1.464-1.9565 2.406-1.0762.63-2.1489 1.028-2.3838.882-.2349-.145-.4273-.093-.4273.116s-1.9925 1.342-4.4275 2.518c-2.4349 1.176-5.4433 2.656-6.6855 3.29-1.2427.633-2.3709 1.039-2.5078.902-.5583-.558-.1894-1.83.7147-2.463 1.2985-.91 1.6279-.851 1.6882.3.0416.79.1036.738.325-.275.2167-.989.8608-1.56 3.0912-2.742 1.5495-.822 3.0123-1.538 3.2507-1.593.2384-.054 1.289-.544 2.3344-1.088 1.5322-.798 1.9721-.876 2.2686-.409.2722.43.3697.352.3749-.297.0043-.6.5899-1.163 1.8485-1.777 2.4792-1.209 2.4922-1.208 2.4922.23zm-73.2144-.14c.0208.505.1236.608.2618.263.1253-.313.1097-.687-.0342-.831s-.2462.112-.2276.568zm8.0565-.397c-.4312.431-.3493 2.745.0971 2.745.2119 0 .4655-.682.563-1.517.1699-1.455-.0412-1.847-.6601-1.228zm-3.45 2.307c.1239.474.39.76.5907.636.4265-.264.0399-1.498-.4694-1.498-.1907 0-.2453.388-.1213.862zm-2.6717-.025c-.1374.222-.0715.513.1457.648.2171.134.5066-.048.6436-.404.2696-.702-.3818-.904-.7893-.244zm1.5326.283c.0208.505.1236.607.2618.262.1253-.313.1097-.687-.0342-.831s-.2462.112-.2276.569zm-12.9997 1.481c-.0134.357.1652.942.3962 1.3.5119.792.5119.108 0-1.084-.2458-.571-.3806-.645-.3962-.216zm14.6758 1.05c-.1062.696-.4647 1.356-.7962 1.465-.4599.151-.5327-.081-.3078-.978.1929-.77.1392-1.08-.1556-.898-.5963.369-.579 2.264.0243 2.637.7923.49 1.7744-.891 1.5946-2.243l-.166-1.25zm161.5818 1.798c-1.68.912-1.49 1.226.217.358 1.634-.831 1.923-1.046 1.373-1.022-.219.01-.934.308-1.59.664zm-174.1277.612c-.8348.263-.6211.327.9301.282 1.1074-.032 1.9244-.204 1.8165-.383-.2393-.395-1.2903-.356-2.7466.101zm165.0447 4.487c-3.743 2.185-6.962 4.156-7.151 4.382s.143.111.739-.255 3.961-2.279 7.477-4.249c3.516-1.971 6.393-3.66 6.393-3.754 0-.409-1.028.126-7.458 3.876zm-161.9765-2.927c.0208.505.1235.608.2618.262.1252-.313.1096-.687-.0343-.831s-.2461.112-.2275.569zm89.0345 19.045c-1.43.591-2.855.978-3.165.862-.31-.117-.464-.05-.341.149.247.399-3.6842 2.374-4.7253 2.374-.6987 0-.8816.53-.3056.886.1916.119 2.4411-.747 4.9989-1.924 2.558-1.178 4.815-2.141 5.016-2.141s.609-.292.906-.65c.687-.827.704-.831-2.384.444zm0 1.908c-1.43.696-2.381 1.281-2.113 1.299.605.041 5.364-2.04 5.364-2.345 0-.426-.668-.211-3.251 1.046zm2.805 1.159c-1.781.859-3.705 1.742-4.274 1.963s-.923.514-.786.65c.252.252 7.973-3.107 8.735-3.799.856-.779-.518-.335-3.675 1.186zm-52.6268 10.551c-.4191.464-1.2786.902-1.9092.975-.8084.094-1.1876.421-1.2856 1.108-.0758.536.0703.975.3251.975.2553 0 .4638-.292.4638-.65 0-.357.2925-.65.6501-.65s.6501.195.6501.434c0 .823.7668.43 1.0585-.542.2839-.948.3029-.951.67-.109l.3776.867.0372-.867c.0278-.644.1314-.718.4035-.288.2926.461.4226.432.6437-.144.7632-1.989-.622-2.725-2.0848-1.109z" fill="url(#a)"/><path d="m261.234 9.23123c0 .40218.329.73123.731.73123.403 0 .732-.32905.732-.73123s-.329-.73123-.732-.73123c-.402 0-.731.32905-.731.73123zm59.596 12.43097c-.612.9901.213 2.1937 1.505 2.1937.58 0 1.054-.6582 1.054-1.4625 0-1.5137-1.765-2.0182-2.559-.7312zm-44.24 1.4624c0 .4022.329.7313.731.7313s.732-.3291.732-.7313-.33-.7312-.732-.7312-.731.329-.731.7312zm7.312 6.9899c0 .6266.335.933.743.6807.409-.253.555-.7656.323-1.1399-.627-1.0143-1.066-.8256-1.066.4592zm20.475 1.7849c0 .4022.329.7312.731.7312s.731-.329.731-.7312-.329-.7312-.731-.7312-.731.329-.731.7312zm23.531 3.8317c.28 1.9611 2.42 2.5827 3.069.8913.618-1.6087-.049-2.5293-1.833-2.5293-1.104 0-1.412.4073-1.236 1.638zm-78.762 2.7859c-.694 1.1247.257 1.8501 1.196.9112.525-.5251.537-.9338.038-1.2424-.41-.253-.965-.1038-1.234.3312zm-10.214 1.4259c-.249.4022-.103.7313.322.7313.426 0 .775-.3291.775-.7313 0-.4021-.145-.7312-.323-.7312s-.526.3291-.774.7312zm21.571.3847c-7.724 1.2102-18.292 4.7128-25.314 8.3887-16.373 8.5736-29.608 24.6856-34.681 42.222-5.713 19.7457-2.299 38.9347 11.038 62.0417 11.519 19.955 14.677 29.739 14.732 45.64.039 11.192-1.472 18.473-6.405 30.859-6.832 17.153-14.811 30.643-31.922 53.964-3.983 5.429-6.153 8.696-4.821 7.261 9.868-10.639 27.045-32.902 34.056-44.14 5.912-9.475 12.21-21.958 16.648-32.992 4.012-9.978 4.763-12.798 6.608-24.823.617-4.022 1.597-10.398 2.178-14.169.877-5.692.894-7.181.098-8.775-.527-1.055-1.348-1.836-1.824-1.736-.476.101-.799-.063-.718-.365.291-1.076-3.141-6.808-3.823-6.386-.382.236-.526-.012-.319-.55.381-.994-7.531-8.402-8.603-8.054-.311.1-.482-.229-.382-.732.101-.503-.228-.832-.731-.731-.502.1-.831-.229-.731-.731.101-.503-.253-.823-.786-.713s-.76-.137-.505-.548c.255-.413.095-.75-.355-.75-.449 0-.629-.304-.4-.676.23-.37-.558-1.37-1.752-2.219-1.461-1.041-2.02-1.933-1.712-2.735.296-.771.168-1.012-.362-.685-.847.523-2.614-1.957-1.902-2.668.22-.221-.285-1.087-1.123-1.925-.837-.837-1.512-1.934-1.498-2.437.015-.502.497-.091 1.072.914.574 1.006 1.056 1.48 1.071 1.054.014-.426-.458-1.413-1.048-2.194-.591-.78-1.085-1.995-1.097-2.699-.013-.704-.322-1.28-.686-1.28-.365 0-.477-.709-.251-1.576.227-.867.114-1.392-.25-1.167-.773.477-.882-.691-1.065-11.516-.247-14.5452 4.623-26.367 15.062-36.5611 23.616-23.0623 66.908-20.3085 83.96 5.3409 3.761 5.6583 5.146 9.0526 6.717 16.4608 2.134 10.0694.872 14.9124-4.677 17.9544-2.847 1.561-3.288 1.626-4.291.622-1.413-1.412-.645-2.72 1.598-2.72 4.198 0 6.232-2.836 6.232-8.693 0-10.1505-4.493-20.6671-12.063-28.2339-8.732-8.728-17.659-12.8784-30.473-14.1676-29.354-2.9527-55.009 14.4565-59.948 40.6825-1.207 6.408-.349 19.362 1.635 24.671.901 2.413 2.026 4.717 2.498 5.119.474.402.732 1.112.574 1.578-.157.466.112 1.092.598 1.393.597.369.692.237.291-.412-.394-.638-.306-.781.265-.428.471.291.67.829.444 1.195-.629 1.019 1.084 3.729 2 3.162.444-.274.604-.17.355.233-.563.912 5.394 7.164 9.934 10.424 1.869 1.341 4.232 3.701 5.253 5.243 3.246 4.905 4.403 5.302 11.48 3.943 5.301-1.019 7.445-1.055 16.392-.279 12.16 1.056 18.588.312 25.627-2.964 5.488-2.554 9.575-6.159 13.18-11.623 3.509-5.321 3.913-5.594 10.313-7.001 12.424-2.73 18.449-8.764 21.659-21.695 2.9-11.681.186-28.8622-6.095-38.5803-3.291-5.0916-3.683-7.8403-1.46-10.227 1.229-1.3191 2.29-1.5977 6.033-1.5846 5.934.0212 10.11 1.9414 14.767 6.7917 3.934 4.0949 3.865 3.9479-1.402-3.0119-3.697-4.8854-13.469-13.7216-16.446-14.8711-4.854-1.8756-9.176 2.2083-10.496 9.9199-1.192 6.9518-4.44 7.6055-4.304.8665.069-3.4704 1.732-7.2436 4.927-11.182l1.891-2.3304-3.164-1.997c-7.482-4.723-18.574-8.3777-29.492-9.7152-8.657-1.061-24.034-.914-31.809.305zm59.961 1.4434c0 1.4625.366 1.8281 1.828 1.8281 1.463 0 1.828-.3656 1.828-1.8281 0-1.4624-.365-1.8281-1.828-1.8281-1.462 0-1.828.3657-1.828 1.8281zm-42.777 1.4625c0 1.8493-.285 2.1937-1.818 2.1937-1.173 0-1.908-.4695-2.073-1.3221-.427-2.2185.478-3.5501 2.243-3.2993 1.292.1835 1.648.7078 1.648 2.4277zm71.538-1.4947c0 .5858.275.8951.61.6881.335-.2069.609-.6859.609-1.0646 0-.3788-.274-.6881-.609-.6881s-.61.4789-.61 1.0646zm-14.868 1.8603c0 .4022.329.7312.732.7312.402 0 .731-.329.731-.7312s-.329-.7312-.731-.7312c-.403 0-.732.329-.732.7312zm-64.584 1.1707c.518 1.3484-1.251 2.7531-2.231 1.7732-.799-.7985-.066-2.9439 1.005-2.9439.427 0 .979.5265 1.226 1.1707zm-8.173 2.3443c-9.188.9404-22.028 5.7724-30.773 11.5805-5.68 3.7725-6.154 4.0576-6.154 3.7001 0-.5719 8.41-6.1767 12.628-8.4172 2.321-1.2329 6.105-2.9549 8.409-3.828 5.02-1.902 16.325-4.3099 17.352-3.6964.402.2398-.256.5375-1.462.661zm32.479-.1228c.635.5499-4.027.1323-5.424-.4863-.976-.4321-.369-.5031 1.828-.2128 1.81.2399 3.428.5543 3.596.6991zm10.053 2.5417c3.549 1.2526 7.103 2.7334 7.899 3.2906 1.994 1.3966.81 1.2716-2.024-.2143-1.287-.6749-5.137-2.1322-8.555-3.2379-3.419-1.1056-5.666-2.0342-4.994-2.0635.672-.0285 4.125.9725 7.674 2.2251zm-91.159-.8153c0 .4022.329.7313.731.7313s.731-.3291.731-.7313-.329-.7312-.731-.7312-.731.329-.731.7312zm103.197 6.3983c.928 1.1839.894 1.1992-.459.2069-.804-.5901-1.599-1.1656-1.767-1.2796-.168-.1141.039-.207.459-.207s1.215.5755 1.767 1.2797zm-30.44 2.3699c3.218.8504 8.897 3.0185 12.621 4.8174 5.465 2.6412 7.861 4.3625 12.431 8.9305 8.836 8.8333 13.296 17.9634 14.899 30.4982 1.726 13.494-1.41 19.177-12.164 22.042-2.011.536-4.486.979-5.501.983-1.642.008-1.951.469-2.822 4.213-.537 2.311-1.797 5.822-2.799 7.8-2.154 4.25-7.872 10.493-11.305 12.341-2.114 1.139-2.194 1.145-.607.046 6.657-4.608 12.301-13.017 14.017-20.883.968-4.43 2.15-5.699 5.318-5.709 3.183-.01 9.27-3.037 11.545-5.742 2.593-3.081 3.199-7.704 2.063-15.743-1.042-7.374-2.595-12.3318-5.524-17.6288-2.647-4.7888-3.3-5.5632-4.215-4.9972-.463.2859-.54.1119-.196-.4439.79-1.2796-5.44-7.5397-11.308-11.3619-14.284-9.3027-32.529-11.9176-50.962-7.3035-7.128 1.7849-18.568 7.9668-24.069 13.0079-5.935 5.4381-10.703 11.3121-10.045 12.3761.297.4804.128.5594-.444.2062-.686-.4241-.796-.1258-.43 1.167.324 1.1444.264 1.4091-.177.7751-.705-1.0135-2.444 2.4379-4.858 9.645-2.63 7.849-2.201 25.995.784 33.138.592 1.417.923 2.73.735 2.918-.188.187-.56-.346-.827-1.187-.267-.84-.76-1.358-1.095-1.15-.336.207-.438-.282-.228-1.087.211-.804.097-1.463-.251-1.463s-.662-.906-.696-2.011c-.035-1.106-.482-4.464-.994-7.463-2.628-15.393 3.221-32.7491 15.078-44.7376 8.506-8.6007 23.202-16.0271 34.588-17.4793 7.655-.9762 20.825-.2633 27.438 1.4858zm60.724.6874c-.541.8753.834 1.7418 1.808 1.14.819-.5053.281-1.8208-.742-1.8208-.355 0-.835.3064-1.066.6808zm8.378 1.4697c0 1.9693 1.383 2.6296 2.716 1.2965 1.333-1.3323.672-2.7158-1.297-2.7158-.918 0-1.419.5017-1.419 1.4193zm-131.038 5.6488c.12.808-.327 1.9217-.993 2.4745-1.045.8665-1.351.8146-2.223-.3788-.874-1.1955-.846-1.567.208-2.7319 1.471-1.6255 2.711-1.363 3.008.6362zm55.508 2.0277c4.467.9396 11.913 3.6072 11.913 4.2675 0 .1389-2.879-.7451-6.399-1.9648-5.999-2.0797-7.079-2.2193-17.325-2.2383-6.01-.011-9.958-.2275-8.774-.4819 4.05-.8695 15.581-.6355 20.585.4175zm-27.575 2.1579c-8.408 2.9944-15.728 7.2933-14.847 8.7192.264.427.075.4965-.457.1674-1.214-.7502-8.025 6.3267-11.769 12.227-1.591 2.5081-2.895 4.2235-2.899 3.8119-.013-1.3389 5.14-8.6717 8.64-12.2972 3.419-3.5399 10.578-8.9276 14.021-10.5509 4.07-1.9187 9.225-3.7461 10.603-3.7578.804-.0073-.677.7495-3.292 1.6804zm-33.728 1.733c-2.372 2.6215-5.079 6.8143-7.902 12.2408-1.255 2.4131-2.062 3.5677-1.792 2.5659 1.085-4.024 10.203-18.1148 11.125-17.1927.21.2106-.433 1.2848-1.431 2.386zm115.95.2457c-.273.4409.049 1.3455.714 2.0109 1.021 1.0208 1.309 1.0486 1.847.1791.35-.5667.467-1.4719.26-2.0109-.453-1.1831-2.136-1.2899-2.821-.1791zm-58.576 2.4767c6.029 1.2774 11.841 3.8514 16.623 7.3613 4.149 3.0463 8.46 8.1291 6.894 8.1291-.566 0-.895-.2179-.731-.4841.633-1.0237-6.509-7.4673-11.169-10.0764-3.814-2.1366-9.103-3.7739-14.643-4.5321-17.114-2.3429-35.899 6.8801-43.895 21.5515-1.316 2.4131-2.168 3.5831-1.894 2.5996 1.636-5.8777 8.847-14.0784 16.245-18.4731 10.825-6.4312 21.497-8.4224 32.57-6.0758zm20.96.7948c0 .2011-.658.0139-1.462-.4168s-1.463-.9469-1.463-1.148.659-.0139 1.463.4168 1.462.9469 1.462 1.148zm-93.597-.0943c0 .6266.329 1.14.731 1.14s.731-.3093.731-.6881-.329-.8914-.731-1.14-.731.0614-.731.6881zm119.687.3049c6.476 10.3689 9.741 21.2474 9.741 32.4518 0 8.9-1.12 12.933-4.776 17.205-2.925 3.417-6.434 4.996-12.668 5.701-6.245.706-5.723-.586.864-2.138 6.402-1.51 9.977-4.15 12.583-9.292 1.571-3.099 1.803-4.531 1.803-11.122 0-11.0231-2.254-18.957-8.409-29.5942-2.277-3.9348-2.459-4.5702-1.315-4.5702.731 0 1.71.6113 2.177 1.3586zm-22.753 2.4803 2.148 2.3766-2.377-2.1477c-2.215-2.0021-2.713-2.6054-2.148-2.6054.126 0 1.196 1.0698 2.377 2.3765zm-23.08 3.2262c11.619 3.1626 20.548 11.8635 24.157 23.5403 1.803 5.835 1.922 15.752.257 21.362-5.128 17.277-16.374 25.637-34.484 25.637-11.08.001-19.244-3.112-26.622-10.15-8.312-7.927-11.569-15.302-11.569-26.189 0-8.143 1.544-13.71 5.424-19.5559 5.586-8.415 15.577-14.5149 26.019-15.886 5.046-.6618 11.603-.1784 16.818 1.2416zm-20.109.5448c-12.571 3.1092-22.764 13.1154-25.648 25.1775-4.34 18.152 6.045 36.73 23.593 42.208 1.935.604 6.315 1.288 9.733 1.519 15.043 1.018 26.918-5.18 32.613-17.022 9.094-18.908 3.275-39.4698-13.735-48.5364-7.681-4.0941-18.182-5.4169-26.556-3.3461zm47.53.4336c.728.8044 1.159 1.4625.958 1.4625s-.961-.6581-1.689-1.4625c-.728-.8043-1.159-1.4624-.958-1.4624s.962.6581 1.689 1.4624zm58.418 6.1614c-.678 1.7688.233 3.3446 1.934 3.3446 1.241 0 1.49-.3831 1.303-2.0043-.26-2.2492-2.527-3.1881-3.237-1.3403zm-155.632 3.417c-.593 1.3674-1.092 2.0913-1.108 1.6073-.035-1.0815 1.573-4.7092 1.93-4.3531.142.1426-.228 1.3777-.822 2.7458zm139.991-2.2661c0 .4022.329.7313.732.7313.402 0 .731-.3291.731-.7313 0-.4021-.329-.7312-.731-.7312-.403 0-.732.3291-.732.7312zm-74.758 1.042c7.686 2.046 13.537 6.886 17.493 14.4706 1.823 3.492 2.019 4.605 2.038 11.543.019 7.363-.083 7.866-2.466 12.261-2.978 5.493-6.863 9.171-12.417 11.758-3.441 1.603-5.121 1.91-10.325 1.889-5.193-.022-6.938-.356-10.603-2.034-5.247-2.401-11.435-8.211-14.135-13.271-1.74-3.261-1.951-4.448-1.951-10.969-.001-6.585.21-7.74 2.115-11.622 5.58-11.3646 18.225-17.2269 30.251-14.0256zm39.604 4.8079c-.001.6033-.483-.0103-1.07-1.3638-.588-1.3527-1.057-2.669-1.043-2.9249.053-.9513 2.116 3.235 2.113 4.2887zm-55.262.3751c-4.819 2.4014-8.579 6.2356-11.054 11.2746-6.7 13.644 3.836 30.429 19.689 31.364 5.721.337 9.313-.682 13.487-3.826 5.953-4.484 9.796-11.722 9.796-18.451 0-7.65-6.099-16.8246-13.518-20.3345-5.542-2.6222-13.171-2.6332-18.4-.0271zm-51.386 3.0295c-.429 1.5458-.831 4.1271-.893 5.7361-.098 2.514-.16 2.616-.441.731-.336-2.256 1.128-10.2644 1.762-9.6311.194.1945.002 1.6182-.428 3.164zm15.712 1.0376c-1.319 3.0415-1.492 2.1085-.247-1.3345.493-1.3637.995-2.1849 1.115-1.8244s-.27 1.782-.868 3.1589zm91.491-1.3798c-.234.5828-.407.4095-.442-.4424-.031-.7707.141-1.2022.384-.9594s.269.8738.058 1.4018zm-39.986 1.2109c0 1.4444-1.95 3.0864-3.127 2.6344-1.45-.556-1.71-3.6998-.347-4.189 1.048-.3751 3.474.71 3.474 1.5546zm-8.178.6625c-.166 1.4459-.642 2.0109-1.694 2.0109-1.051 0-1.527-.565-1.693-2.0109-.202-1.7433.024-2.0109 1.693-2.0109s1.895.2676 1.694 2.0109zm48.879 1.8279c-.202.503-.368.092-.368-.914 0-1.0053.166-1.4163.368-.9139.204.5029.204 1.3259 0 1.8279zm-55.386-.295c.853 1.593-.243 3.037-2.303 3.037-1.716 0-2.454-1.892-1.285-3.3 1.226-1.4761 2.716-1.3672 3.588.263zm20.061-.006c1.139 1.258 1.121 1.429-.275 2.693-1.297 1.174-1.627 1.212-2.543.297-1.2-1.2-.691-4.3341.704-4.3341.494 0 1.445.6051 2.114 1.3441zm-52.48 3.848c-.584 2.171-1.081 3.29-1.106 2.486-.054-1.838 1.406-7.196 1.843-6.759.178.179-.153 2.102-.737 4.273zm-6.252 5.776c-.5 7.923-.537 8.071-.635 2.56-.092-5.153.491-11.748.987-11.174.098.113-.06 3.989-.352 8.614zm87.661-5.849c-.027.723-.254.598-.669-.366-.863-2.01-.863-3.165 0-1.828.39.603.691 1.59.669 2.194zm-54.414 3.3c0 1.91-.23 2.152-1.828 1.929-2.394-.332-2.394-.334-1.36-2.604 1.195-2.623 3.188-2.2 3.188.675zm30.412-.982c.706 1.317.622 1.754-.492 2.569-1.632 1.194-2.782.903-3.11-.786-.634-3.276 2.084-4.621 3.602-1.783zm69.114-.509c-1.565.558-4.257 2.399-5.982 4.092-2.725 2.675-3.685 4.574-7.325 14.493-5.296 14.43-7.768 19.73-10.358 22.211-1.131 1.084-6.652 4.309-12.269 7.166-16.801 8.546-19.353 10.753-19.353 16.737 0 6.04 2.291 8.384 14.259 14.586 13.693 7.096 20.219 14.054 26.346 28.094 3.541 8.113 5.596 10.002 10.875 10.002 3.042 0 4.162-.343 5.393-1.654 1.639-1.745 3.284-7.095 4.168-13.55.403-2.954.951-4.146 2.313-5.039 3.038-1.99 3.484-3.632 1.773-6.53-.83-1.408-1.51-2.665-1.51-2.795 0-.129.992-.646 2.204-1.147 2.935-1.216 3.614-3.911 1.542-6.117-1.898-2.02-1.898-2.032-.089-4.117.961-1.108 1.462-2.735 1.462-4.751 0-3.707.854-4.568 7.495-7.559 3.308-1.49 4.936-2.636 4.936-3.475 0-.689-3.248-8.525-7.218-17.413-3.969-8.888-7.436-16.865-7.703-17.728-.555-1.795 1.045-6.239 4.161-11.559 1.284-2.191 2.277-5.125 2.515-7.432.351-3.4.189-4.016-1.497-5.702-1.718-1.718-2.414-1.888-7.592-1.859-3.135.017-6.98.488-8.546 1.046zm-44.565 2.029c-.203.504-.369.092-.369-.914 0-1.005.166-1.416.369-.914.203.503.203 1.326 0 1.828zm-23.153 6.45c0 1.909-.245 2.209-1.645 2.011-1.035-.147-1.729-.821-1.87-1.817-.206-1.443.453-1.965 2.967-2.354.302-.047.548.925.548 2.16zm-33.037.132c-.171 1.205-.723 1.645-2.062 1.645s-1.89-.44-2.062-1.645c-.199-1.407.1-1.646 2.062-1.646s2.262.239 2.062 1.646zm97.874-.492c.244.634-.096 1.692-.754 2.35-1.108 1.108-1.285 1.108-2.394 0-1.494-1.495-.808-3.504 1.197-3.504.83 0 1.708.519 1.951 1.154zm-143.201 10.546c-.005.603-.466-.548-1.025-2.559-.56-2.011-.993-4.808-.962-6.216.04-1.796.345-1.032 1.025 2.56.533 2.815.965 5.612.962 6.215zm18.91-4.584c-.186.711-.349.306-.364-.9-.015-1.207.137-1.789.337-1.294s.213 1.482.027 2.194zm-5.118 1.462c-.186.712-.35.307-.365-.9-.014-1.206.137-1.788.338-1.293.2.495.212 1.482.027 2.193zm33.495.197c0 1.34-.44 1.89-1.648 2.062-.989.141-1.825-.225-2.089-.914-.729-1.897.292-3.465 2.089-3.21 1.208.172 1.648.722 1.648 2.062zm29.981-.445c0 1.995-2.135 3.17-3.58 1.971-.873-.724-.962-1.285-.377-2.379.988-1.846 3.957-1.54 3.957.408zm-92.501-.286c0 .402.309.731.688.731s.891-.329 1.14-.731-.062-.731-.688-.731c-.627 0-1.14.329-1.14.731zm35.727 4.387c0 .691-.232.557-.628-.365-.346-.805-.628-1.956-.628-2.56 0-.691.232-.556.628.366.346.804.628 1.956.628 2.559zm-4.399 3.291c-.002.402-.456-.256-1.008-1.463-.553-1.206-.995-2.687-.982-3.29.012-.603.466.055 1.008 1.462.542 1.408.984 2.889.982 3.291zm35.824-1.138c.367 2.506-.845 3.236-2.775 1.674-1.584-1.284-1.605-1.415-.398-2.622 1.596-1.596 2.856-1.219 3.173.948zm20.17-.978c1.609.618 1.444 2.276-.321 3.221-1.9 1.017-2.91.365-2.91-1.88 0-1.797.981-2.204 3.231-1.341zm-5.79 3.944c0 1.34-.44 1.89-1.648 2.062-.989.14-1.825-.225-2.089-.914-.729-1.898.292-3.465 2.089-3.21 1.208.172 1.648.722 1.648 2.062zm-64.005 1.097c0 .402-.319.237-.709-.366s-.708-1.426-.708-1.828.318-.238.708.366c.39.603.709 1.426.709 1.828zm20.474 0c0 .402-.319.237-.708-.366-.39-.603-.709-1.426-.709-1.828s.319-.238.709.366c.389.603.708 1.426.708 1.828zm36.44-.642c.24 1.68-1.35 2.692-3.146 2.003-1.135-.436-1.489-2.554-.579-3.464 1.043-1.042 3.506-.076 3.725 1.461zm-40.544.935c.251-.563.294-.349.095.476-.199.826.122 2.142.715 2.925.592.784 1.077 1.753 1.077 2.156 0 .402-.775-.531-1.723-2.073-1.148-1.87-1.871-2.479-2.164-1.829-.242.537-.244.195-.004-.76.292-1.159.171-1.572-.363-1.242-.515.318-.634.058-.334-.725.405-1.054.59-.994 1.357.438.67 1.253 1 1.408 1.344.634zm122.455-.483c-.348 2.43-2.794 2.644-2.794.243 0-1.415.375-1.881 1.514-1.881 1.149 0 1.457.394 1.28 1.638zm-132.072 2.985c-.278 1.067-.124 1.297.579.862.63-.389.784-.308.447.237-.623 1.007.845 3.977 1.703 3.447.337-.209.567.193.512.893-.055.704.333 1.182.868 1.071.533-.111.757.142.497.561-.258.42.203 1.854 1.027 3.188 1.13 1.828 1.25 2.424.487 2.424-.564 0-.839-.451-.621-1.019.239-.621-.217-1.178-1.166-1.426-1.524-.398-1.869-1.059-1.596-3.052.075-.543-.192-.785-.593-.537-.402.248-.968.066-1.259-.405-.33-.534-.213-.66.315-.334.464.287.844.345.844.13 0-.751-2.689-4.805-2.988-4.507-.166.166-.346-.438-.4-1.343s.312-1.645.813-1.645c.55 0 .761.578.531 1.455zm-41.099-.236c0 .402.33.731.732.731s.731-.329.731-.731-.329-.731-.731-.731-.732.329-.732.731zm36.562 2.28c0 .402-.329.528-.731.279-.402-.248-.731-.781-.731-1.183s.329-.528.731-.279c.402.248.731.781.731 1.183zm2.925 6.495c.82 1.608 1.328 2.925 1.127 2.925s-1.038-1.317-1.858-2.925c-.821-1.609-1.328-2.925-1.127-2.925s1.038 1.316 1.858 2.925zm126.804-1.25c1.142 1.811-1.202 4.088-2.824 2.743-1.361-1.131-1.446-2.35-.247-3.549 1.076-1.077 2.044-.822 3.071.806zm-121.829 6.464c.149 1.278-.196 2.072-1.038 2.395-1.345.516-2.445-.623-2.464-2.551-.027-2.865 3.167-2.723 3.502.156zm68.879 2.464c-1.005.574-2.157 1.045-2.559 1.045s.091-.471 1.097-1.045c1.005-.575 2.157-1.045 2.559-1.045s-.091.47-1.097 1.045zm-67.344 3.605c-.192.193-.785-.375-1.318-1.262-.925-1.54-.909-1.556.35-.35.725.695 1.16 1.42.968 1.612zm2.194 3.657c-.192.192-.786-.376-1.319-1.263-.925-1.54-.909-1.556.351-.35.724.695 1.16 1.42.968 1.613zm119.627 2.254c0 .949-.57 1.533-1.645 1.686-1.212.172-1.645-.133-1.645-1.158 0-.765.231-1.622.512-1.904.97-.97 2.778-.075 2.778 1.376zm-117.363 2.08c0 .928-.337.514-1.404-1.725-.82-1.723-.805-1.747.267-.408.626.781 1.137 1.74 1.137 2.133zm30.2 1.171c-3.798 2.314-4.023 3.021-8.286 25.988-.821 4.424-1.949 9.581-2.506 11.458-2.553 8.604-14.476 34.335-21.798 47.04-3.39 5.883-12.169 19.179-15.329 23.217-1.181 1.509-1.891 2.742-1.58 2.742.312 0-.072.521-.853 1.157-1.399 1.141-1.399 1.15.044.721 1.208-.359 1.145-.182-.366 1.022-1.005.8-2.075 1.463-2.377 1.471-.301.009-.548.53-.548 1.157 0 .704-.349.939-.914.614-.502-.29-.688-.275-.412.032.276.306-.352 1.291-1.395 2.189-1.399 1.204-1.587 1.631-.716 1.631.648 0 1.02-.258.825-.573-.336-.543 1.592-1.915 2.819-2.007 1.276-.096 19.484-15.563 28.955-24.598 7.452-7.108 8.747-9.085 12.813-19.574 1.751-4.517 6.963-17.262 11.581-28.321 4.619-11.06 9.256-22.606 10.305-25.657 3.844-11.176 3.24-17.476-1.91-19.92-3.358-1.593-5.482-1.54-8.352.211zm-28.147 3.339c-.225.225-.634-.181-.909-.902-.396-1.042-.313-1.126.41-.409.5.496.724 1.086.499 1.311zm2.283 5.831c0 .402-.47-.092-1.045-1.097-.575-1.006-1.045-2.157-1.045-2.56 0-.402.47.092 1.045 1.097.575 1.006 1.045 2.157 1.045 2.56zm56.897-.274c-1.634.915-1.63 2.597.008 3.44 1.717.882 3.108.297 3.108-1.31 0-1.915-1.575-2.992-3.116-2.13zm-70.739 1.736c0 .603.329 1.097.732 1.097.402 0 .731-.494.731-1.097s-.329-1.097-.731-1.097c-.403 0-.732.494-.732 1.097zm-57.767 3.291c0 .402.329.731.731.731.403 0 .732-.329.732-.731 0-.403-.329-.732-.732-.732-.402 0-.731.329-.731.732zm113.728 5.129c-2.331 6.173-7.926 20.025-13.581 33.626-2.089 5.027-5.991 14.573-8.671 21.214l-4.871 12.074 1.668 2.476c2.14 3.176 2.223 8.829.207 14.134-.804 2.117-1.463 4.059-1.463 4.317 0 .482 3.627 1.68 4.525 1.494.277-.058 1.51-.182 2.742-.276 1.425-.109 2.258-.579 2.29-1.295.036-.785.241-.683.68.339.549 1.278.649 1.186.79-.732.131-1.779.257-1.572.672 1.097.78 5.015.793.468.02-6.88-.787-7.488.137-20.305 1.957-27.122 3.494-13.091 19.953-39.852 24.51-39.852 2.925 0 2.185 2.206-2.147 6.402-4.31 4.174-9.561 11.446-13.898 19.247-6.302 11.334-9.277 27.049-7.602 40.162.487 3.82.89 7.769.895 8.774.007 1.817.011 1.818.672.183.365-.905 1.004-1.645 1.42-1.645.414 0 .754-.513.754-1.14s.307-.951.682-.719.819-.489.987-1.602c.246-1.625.345-1.448.502.902.108 1.608.475 3.912.816 5.118.542 1.916.577 1.823.284-.731-1.649-14.331-.979-28.78 1.83-39.486 1.529-5.83 4.243-12.472 4.849-11.866.223.224.089 1.01-.299 1.748-1.366 2.6-3.706 13.122-4.48 20.144-1.012 9.174-.992 17.492.06 25.696.8 6.242.902 6.499 2.034 5.102.655-.808 1.761-1.387 2.458-1.285.697.103 1.756-.302 2.354-.9.96-.96 1.102-.847 1.23.978.079 1.134.343-1.557.587-5.981l.442-8.043.144 7.007c.08 3.854.362 7.225.628 7.491.265.265.953-.189 1.528-1.01.787-1.122 1.284-1.295 2.006-.696.704.585 1.045.545 1.28-.148.177-.52.241 1.852.143 5.271-.099 3.418-.052 4.899.104 3.29.826-8.529 2.102-16.976 3.7-24.496.982-4.625 2.094-9.979 2.47-11.897 2.536-12.918 6.549-20.533 12.421-23.57 4.197-2.17 8.71-1.76 27.783 2.527l6.215 1.396-1.991-1.607c-1.9-1.532-11.828-7.097-33.474-18.762-18.379-9.904-24.329-14.992-25.95-22.19l-.846-3.752zm-40.105-2.067c-.234.583-.407.41-.442-.442-.031-.771.141-1.202.384-.96.243.243.269.874.058 1.402zm.731 2.925c-.233.583-.407.409-.442-.442-.031-.771.141-1.203.384-.96s.269.874.058 1.402zm61.655 4.938c0 .781.263 1.582.584 1.78 1.042.644 2.566-.826 2.105-2.029-.634-1.652-2.689-1.462-2.689.249zm-105.297.774c0 .403.329.732.731.732s.731-.329.731-.732c0-.402-.329-.731-.731-.731s-.731.329-.731.731zm44.38 1.997c-.185.712-.349.307-.364-.9-.014-1.206.137-1.788.337-1.293.201.495.213 1.482.027 2.193zm110.223-.265c.612.999.487 1.499-.567 2.283-2.545 1.891-4.77-.892-2.516-3.146 1.088-1.088 2.053-.818 3.083.863zm-107.499 5.293c1.494.574 1.493 3.486-.001 4.726-2.279 1.892-5.136-1.775-3.2-4.108.974-1.173 1.492-1.274 3.201-.618zm76.825 3.236c-.284.459-.172 1.179.249 1.6.982.983 3.273.126 2.873-1.076-.406-1.222-2.476-1.57-3.122-.524zm-105.283 2.902c.249.402.597.731.775.731.177 0 .322-.329.322-.731 0-.403-.349-.732-.774-.732-.426 0-.571.329-.323.732zm3.072 22.399c-.281.282-.512 1.139-.512 1.904 0 1.025.433 1.33 1.645 1.158 1.075-.153 1.645-.737 1.645-1.686 0-1.451-1.807-2.346-2.778-1.376zm-75.098 5.387c0 .402.329.732.731.732s.731-.33.731-.732-.329-.731-.731-.731-.731.329-.731.731zm59.23 1.463c0 .402.329.731.731.731s.731-.329.731-.731-.329-.731-.731-.731-.731.329-.731.731zm43.693 3.037c1.179 1.178-.198 3.544-2.062 3.544-1.616 0-2.529-1.599-1.88-3.291.499-1.3 2.751-1.445 3.942-.253zm-53.961 9.065c-.775.934-.737 1.337.219 2.294.639.638 1.68.96 2.314.717 1.495-.573 1.493-3.127-.003-3.701-1.531-.587-1.452-.609-2.53.69zm22.839 2.577c.144.432.575.786.957.786.381 0 .812-.354.956-.786s-.286-.786-.956-.786c-.671 0-1.101.354-.957.786zm71.289 11.051c-.234.583-.407.41-.442-.442-.032-.771.141-1.202.384-.959.243.242.269.873.058 1.401zm-119.691 2.057c0 .402.494.731 1.097.731.604 0 1.097-.329 1.097-.731 0-.403-.493-.732-1.097-.732-.603 0-1.097.329-1.097.732zm22.405 10.744c-.824.824-.501 1.686.629 1.686.603 0 1.097-.309 1.097-.688 0-.922-1.142-1.582-1.726-.998zm49.736 5.203c-3.155 1.484-5.468 2.963-5.141 3.286s-.025.349-.783.059c-1.032-.397-1.227-.286-.779.44.391.632.316.793-.218.463-.662-.409-8.184 2.738-8.184 3.426 0 .107.634.196 1.41.196.774 0 1.248-.259 1.053-.575-.524-.848.778-.698 1.667.192.966.966 4.816-.63 4.144-1.718-.256-.413-.093-.512.373-.224.456.281 1.529.137 2.386-.32 1.125-.603 1.776-.612 2.354-.035.578.579.523.799-.2.799-.549 0-.853.147-.674.326.179.178 1.551.048 3.05-.29 1.546-.348 2.899-.335 3.126.032.22.357 1.149.156 2.065-.443 1.882-1.234 5.77-1.198 5.291.049-.171.448.118.814.644.814.732 0 .776-.394.189-1.683-.422-.926-.992-1.544-1.267-1.375-.274.17-.44-.416-.367-1.302.174-2.121-.375-3.53-1.181-3.032-.355.22-.45-.111-.211-.735.729-1.9-2.496-1.291-8.747 1.65zm-42.16-1.201c0 .335.309.609.688.609s.858-.274 1.065-.609-.103-.61-.688-.61c-.586 0-1.065.275-1.065.61zm72.45 1.036c.035.852.208 1.025.441.442.212-.528.185-1.159-.058-1.402-.242-.242-.415.189-.383.96zm-3.657.731c.035.852.209 1.025.442.442.211-.528.185-1.159-.058-1.401-.242-.243-.415.188-.384.959zm9.506.731c.035.852.209 1.025.442.443.211-.528.185-1.159-.058-1.402-.242-.243-.415.188-.384.959zm2.925 0c.035.852.209 1.025.442.443.211-.528.185-1.159-.058-1.402s-.415.188-.384.959zm7.313 0c.035.852.208 1.025.441.443.212-.528.185-1.159-.057-1.402-.243-.243-.416.188-.384.959zm-6.581 2.925c.035.852.208 1.025.441.442.212-.527.185-1.159-.058-1.401-.242-.243-.415.188-.383.959zm-48.76 1.645c.207.336-.088.61-.656.61s-.863-.274-.656-.61c.207-.335.502-.609.656-.609.153 0 .449.274.656.609zm-56.223.865c.253.409.766.555 1.14.323 1.015-.627.826-1.066-.459-1.066-.626 0-.933.335-.681.743zm77.869.996c0 .152.576.728 1.28 1.28 1.16.909 1.185.883.276-.276-.955-1.219-1.556-1.605-1.556-1.004zm-14.256 3.139c.202.27-.142 1.269-.767 2.222-1.082 1.651-1.069 1.691.28.848 1.37-.855 1.671-2.38.628-3.173-.281-.213-.343-.166-.141.103z" fill="url(#b)"/></g></svg>